<svg width="72" height="72" viewBox="0 0 72 72" fill="none" xmlns="http://www.w3.org/2000/svg">
<circle cx="35.5" cy="36.5" r="28.5" fill="black"/>
<path fill-rule="evenodd" clip-rule="evenodd" d="M15.9995 6.06709C21.9197 2.11136 28.8799 -5.21893e-07 36 -6.50562e-07C40.7276 -7.35996e-07 45.4089 0.931167 49.7766 2.74034C54.1443 4.5495 58.1129 7.20124 61.4558 10.5442C64.7988 13.8871 67.4505 17.8557 69.2597 22.2234C71.0688 26.5911 72 31.2724 72 36C72 43.1201 69.8886 50.0803 65.9329 56.0005C61.9772 61.9207 56.3548 66.5349 49.7766 69.2597C43.1985 71.9844 35.9601 72.6973 28.9768 71.3083C21.9934 69.9192 15.5789 66.4905 10.5442 61.4558C5.50948 56.4211 2.08081 50.0066 0.691747 43.0232C-0.697321 36.0399 0.0155988 28.8015 2.74035 22.2234C5.46511 15.6453 10.0793 10.0228 15.9995 6.06709ZM18 47.52L27.72 47.52C32.4 47.52 36 45.108 36 40.932C36.059 40.1899 35.9659 39.4436 35.7265 38.7387C35.4871 38.0338 35.1063 37.3852 34.6076 36.8325C34.1088 36.2798 33.5026 35.8347 32.8259 35.5244C32.1492 35.2142 31.4163 35.0452 30.672 35.028C31.8464 34.7893 32.8973 34.1401 33.6362 33.1966C34.3751 32.2532 34.7537 31.0773 34.704 29.88C34.704 26.316 31.932 24.12 27.72 24.12L18 24.12L18 47.52ZM51.3 25.92L40.5 25.92L40.5 27.72L51.3 27.72L51.3 25.92ZM42.12 39.78L54 39.78L54 38.088C54.0794 37.0007 53.9249 35.9089 53.5469 34.8863C53.1689 33.8637 52.5762 32.934 51.8087 32.1597C51.0412 31.3853 50.1168 30.7844 49.0975 30.3974C48.0783 30.0104 46.988 29.8462 45.9 29.916C44.8084 29.8251 43.7101 29.9713 42.6803 30.3447C41.6505 30.7181 40.7137 31.3097 39.934 32.0791C39.1543 32.8486 38.5503 33.7775 38.1633 34.8022C37.7763 35.827 37.6156 36.9233 37.692 38.016L37.692 39.6C37.6074 40.7277 37.7709 41.8603 38.1711 42.918C38.5712 43.9757 39.1983 44.9329 40.0082 45.7222C40.8181 46.5115 41.7911 47.1137 42.8588 47.4865C43.9265 47.8593 45.0629 47.9936 46.188 47.88C47.9485 48.0735 49.7185 47.6114 51.1597 46.582C52.6009 45.5526 53.6121 44.0281 54 42.3L49.644 42.3C49.4187 43.0488 48.9301 43.6909 48.2685 44.1077C47.6068 44.5246 46.8167 44.688 46.044 44.568C45.4936 44.5818 44.9467 44.4774 44.4401 44.262C43.9335 44.0465 43.4789 43.725 43.1071 43.319C42.7352 42.913 42.4547 42.4321 42.2844 41.9085C42.1142 41.385 42.0581 40.831 42.12 40.284L42.12 39.78ZM30.0961 30.6719C30.0961 28.7639 28.8361 27.6119 26.6761 27.6119L22.5361 27.6119L22.5361 33.8759L25.5961 33.8759C28.8001 33.8759 30.0961 32.7239 30.0961 30.6719ZM44.4791 33.3855C44.9384 33.1846 45.4346 33.0819 45.9359 33.084C46.455 33.0506 46.9752 33.13 47.4607 33.317C47.9462 33.5039 48.3854 33.7938 48.748 34.1667C49.1107 34.5397 49.3883 34.9868 49.5616 35.4773C49.7349 35.9678 49.7998 36.49 49.7519 37.008L42.3359 37.008C42.2908 36.5087 42.3504 36.0055 42.511 35.5306C42.6716 35.0557 42.9296 34.6196 43.2685 34.2502C43.6074 33.8808 44.0198 33.5863 44.4791 33.3855ZM22.5361 37.08L26.9641 37.08C29.6641 37.08 31.3201 38.052 31.3201 40.464C31.3201 42.876 29.7361 44.064 26.1361 44.064L22.5361 44.064L22.5361 37.08Z" fill="white"/>
</svg>
