<svg width="56" height="55" viewBox="0 0 56 55" fill="none" xmlns="http://www.w3.org/2000/svg">
<ellipse cx="27.5448" cy="26.9018" rx="14.8629" ry="14.8629" fill="white"/>
<path d="M34.2203 25.4919C33.9049 25.4906 33.5928 25.5552 33.3038 25.6816C33.0148 25.8079 32.7554 25.9932 32.5422 26.2256C32.329 26.458 32.1667 26.7324 32.0657 27.0311C31.9646 27.3299 31.9271 27.6465 31.9555 27.9606L36.621 27.9606C36.6512 27.6347 36.6103 27.3061 36.5013 26.9976C36.3923 26.689 36.2176 26.4077 35.9895 26.1731C35.7613 25.9384 35.485 25.7561 35.1796 25.6385C34.8742 25.5209 34.5469 25.4709 34.2203 25.4919Z" fill="#0A52E2"/>
<path d="M22.2848 28.0058L19.499 28.0058L19.499 32.3996L21.7639 32.3996C24.0287 32.3996 25.0252 31.6522 25.0252 30.1348C25.0252 28.6173 23.9834 28.0058 22.2848 28.0058Z" fill="#0A52E2"/>
<path d="M24.2552 23.9743C24.2552 22.774 23.4625 22.0492 22.1036 22.0492L19.499 22.0492L19.499 25.99L21.4241 25.99C23.4398 25.99 24.2552 25.2653 24.2552 23.9743Z" fill="#0A52E2"/>
<path d="M27.9696 4.67813C23.4902 4.67813 19.1114 6.00643 15.3869 8.49505C11.6624 10.9837 8.75949 14.5209 7.0453 18.6593C5.3311 22.7977 4.88259 27.3515 5.75648 31.7449C6.63037 36.1382 8.78741 40.1737 11.9548 43.3412C15.1222 46.5086 19.1578 48.6656 23.5511 49.5395C27.9445 50.4134 32.4983 49.9649 36.6367 48.2507C40.7751 46.5365 44.3123 43.6336 46.8009 39.9091C49.2895 36.1846 50.6178 31.8058 50.6178 27.3264C50.6178 24.3522 50.032 21.4071 48.8939 18.6593C47.7557 15.9115 46.0874 13.4147 43.9843 11.3117C41.8812 9.20857 39.3845 7.54031 36.6367 6.40213C33.8889 5.26395 30.9438 4.67813 27.9696 4.67813ZM22.7605 34.5739L16.6454 34.5739L16.6454 19.8525L22.7605 19.8525C25.4103 19.8525 27.1542 21.234 27.1542 23.4762C27.1855 24.2295 26.9473 24.9692 26.4825 25.5628C26.0176 26.1563 25.3564 26.5648 24.6176 26.7149C25.0858 26.7258 25.5469 26.832 25.9727 27.0272C26.3984 27.2224 26.7798 27.5024 27.0936 27.8501C27.4073 28.1978 27.6469 28.6059 27.7975 29.0494C27.9481 29.4928 28.0067 29.9623 27.9696 30.4292C27.9696 33.0564 25.7047 34.5739 22.7605 34.5739ZM30.8006 20.9849L37.5951 20.9849L37.5951 22.1173L30.8006 22.1173L30.8006 20.9849ZM39.2937 29.7045L31.8198 29.7045L31.8198 30.0215C31.7808 30.3657 31.8161 30.7142 31.9232 31.0436C32.0303 31.373 32.2068 31.6755 32.4408 31.9309C32.6747 32.1863 32.9607 32.3886 33.2794 32.5242C33.5981 32.6597 33.9422 32.7254 34.2884 32.7167C34.7746 32.7922 35.2716 32.6894 35.6879 32.4271C36.1041 32.1649 36.4115 31.761 36.5533 31.2899L39.2937 31.2899C39.0497 32.377 38.4135 33.3361 37.5068 33.9837C36.6002 34.6314 35.4866 34.9221 34.379 34.8003C33.6712 34.8718 32.9562 34.7873 32.2846 34.5528C31.6129 34.3183 31.0007 33.9394 30.4912 33.4428C29.9817 32.9463 29.5872 32.3441 29.3354 31.6786C29.0837 31.0132 28.9808 30.3007 29.034 29.5912L29.034 28.5947C28.9859 27.9073 29.0871 27.2175 29.3305 26.5729C29.574 25.9282 29.954 25.3438 30.4445 24.8597C30.935 24.3757 31.5244 24.0034 32.1723 23.7685C32.8201 23.5336 33.5111 23.4416 34.1979 23.4988C34.8823 23.455 35.5683 23.5582 36.2095 23.8017C36.8507 24.0452 37.4323 24.4232 37.9151 24.9104C38.398 25.3975 38.7709 25.9824 39.0086 26.6258C39.2464 27.2691 39.3436 27.9559 39.2937 28.64L39.2937 29.7045Z" fill="url(#paint0_linear_1145_7591)"/>
<defs>
<linearGradient id="paint0_linear_1145_7591" x1="15.7754" y1="8.62988" x2="45.6017" y2="46.2308" gradientUnits="userSpaceOnUse">
<stop stop-color="#1170FF"/>
<stop offset="1" stop-color="#0029BB"/>
</linearGradient>
</defs>
</svg>
