<svg width="3409" height="67" viewBox="0 0 3409 67" fill="none" xmlns="http://www.w3.org/2000/svg">
<line x1="173.5" y1="49.5" x2="1.5" y2="49.5" stroke="#252525" stroke-width="3" stroke-linecap="round" stroke-dasharray="8 12"/>
<path fill-rule="evenodd" clip-rule="evenodd" d="M185 44C184.448 44 184 44.4477 184 45V51C184 51.5523 184.448 52 185 52H3073.53V44H185ZM3169.5 51.5C3170.33 51.5 3171 50.8284 3171 50C3171 49.1716 3170.33 48.5 3169.5 48.5H3165.88C3165.06 48.5 3164.38 49.1716 3164.38 50C3164.38 50.8284 3165.06 51.5 3165.88 51.5H3169.5ZM3155.03 51.5C3155.86 51.5 3156.53 50.8284 3156.53 50C3156.53 49.1716 3155.86 48.5 3155.03 48.5H3147.8C3146.97 48.5 3146.3 49.1716 3146.3 50C3146.3 50.8284 3146.97 51.5 3147.8 51.5H3155.03ZM3136.95 51.5C3137.78 51.5 3138.45 50.8284 3138.45 50C3138.45 49.1716 3137.78 48.5 3136.95 48.5H3129.72C3128.89 48.5 3128.22 49.1716 3128.22 50C3128.22 50.8284 3128.89 51.5 3129.72 51.5H3136.95ZM3118.87 51.5C3119.7 51.5 3120.37 50.8284 3120.37 50C3120.37 49.1716 3119.7 48.5 3118.87 48.5H3111.64C3110.81 48.5 3110.14 49.1716 3110.14 50C3110.14 50.8284 3110.81 51.5 3111.64 51.5H3118.87ZM3100.79 51.5C3101.62 51.5 3102.29 50.8284 3102.29 50C3102.29 49.1716 3101.62 48.5 3100.79 48.5H3093.56C3092.73 48.5 3092.06 49.1716 3092.06 50C3092.06 50.8284 3092.73 51.5 3093.56 51.5H3100.79ZM3082.71 51.5C3083.54 51.5 3084.21 50.8284 3084.21 50C3084.21 49.1716 3083.54 48.5 3082.71 48.5H3079.09C3078.26 48.5 3077.59 49.1716 3077.59 50C3077.59 50.8284 3078.26 51.5 3079.09 51.5H3082.71Z" fill="#252525"/>
<path d="M3187.98 38.832L3183.88 39.024C3183.62 39.024 3183.36 38.856 3183.08 38.52C3182.81 38.184 3182.68 37.856 3182.68 37.536C3182.68 37.248 3183.13 37.064 3184.04 36.984C3184.97 36.904 3187 36.864 3190.12 36.864C3191.73 36.864 3193.06 37.04 3194.1 37.392C3195.16 37.744 3195.68 38.136 3195.68 38.568C3195.68 38.872 3195.42 39.024 3194.89 39.024C3194.36 39.024 3193.63 38.992 3192.68 38.928C3191.74 38.864 3190.84 38.824 3189.97 38.808C3190.02 38.968 3190.04 39.144 3190.04 39.336C3190.04 39.928 3189.42 42.68 3188.17 47.592C3188.04 48.104 3187.85 48.904 3187.6 49.992C3187.34 51.08 3187.15 51.84 3187.02 52.272C3186.8 53.12 3186.6 53.544 3186.42 53.544C3186.18 53.544 3185.91 53.368 3185.6 53.016C3185.32 52.648 3185.17 52.28 3185.17 51.912C3185.17 51.544 3185.6 49.656 3186.47 46.248C3187.33 42.824 3187.84 40.352 3187.98 38.832ZM3202 45.816C3202 45.272 3201.91 44.76 3201.74 44.28C3201.56 43.784 3201.3 43.424 3200.97 43.2C3199.86 43.504 3198.91 44.36 3198.11 45.768C3197.33 47.16 3196.94 48.472 3196.94 49.704C3196.94 50.936 3197.24 51.704 3197.85 52.008C3199 51.784 3199.98 51 3200.78 49.656C3201.59 48.296 3202 47.016 3202 45.816ZM3195.69 46.032C3196.25 44.784 3196.98 43.76 3197.87 42.96C3198.78 42.144 3199.71 41.736 3200.66 41.736C3201.62 41.736 3202.42 42.144 3203.06 42.96C3203.7 43.76 3204.02 44.744 3204.02 45.912C3204.02 47.064 3203.74 48.248 3203.18 49.464C3202.62 50.664 3201.84 51.664 3200.85 52.464C3199.87 53.248 3198.83 53.64 3197.73 53.64C3196.91 53.64 3196.23 53.264 3195.69 52.512C3195.14 51.76 3194.87 50.808 3194.87 49.656C3194.87 48.488 3195.14 47.28 3195.69 46.032ZM3216.29 53.64C3216.07 53.64 3215.8 53.472 3215.5 53.136C3215.2 52.784 3215.04 52.456 3215.04 52.152C3215.04 51.848 3215.29 50.808 3215.79 49.032C3216.3 47.256 3216.8 45.12 3217.3 42.624C3217.81 40.112 3218.07 37.816 3218.07 35.736C3218.07 35.256 3218.24 35.016 3218.6 35.016C3218.85 35.016 3219.16 35.256 3219.53 35.736C3219.9 36.2 3220.08 36.656 3220.08 37.104C3220.08 39.072 3219.65 41.88 3218.79 45.528C3220.69 42.952 3222.42 41.664 3223.97 41.664C3224.72 41.664 3225.36 42.032 3225.87 42.768C3226.4 43.504 3226.66 44.384 3226.66 45.408C3226.66 46.416 3226.36 47.576 3225.77 48.888C3225.2 50.2 3224.41 51.328 3223.42 52.272C3222.43 53.2 3221.39 53.664 3220.3 53.664C3219.21 53.664 3218.14 53.112 3217.08 52.008L3217.06 52.032C3216.71 53.104 3216.45 53.64 3216.29 53.64ZM3220.11 51.792C3221.15 51.792 3222.16 51.088 3223.16 49.68C3224.16 48.256 3224.67 46.76 3224.67 45.192C3224.67 44.248 3224.38 43.776 3223.8 43.776C3222.88 43.776 3221.84 44.424 3220.68 45.72C3219.55 47.016 3218.56 48.56 3217.73 50.352C3218.48 51.312 3219.28 51.792 3220.11 51.792ZM3237.45 45.72C3237.45 46.568 3236.98 47.264 3236.05 47.808C3235.14 48.336 3234.1 48.6 3232.93 48.6C3231.78 48.6 3230.73 48.472 3229.79 48.216C3229.57 48.92 3229.45 49.552 3229.45 50.112C3229.45 50.656 3229.62 51.08 3229.96 51.384C3230.31 51.688 3230.88 51.84 3231.66 51.84C3232.46 51.84 3233.28 51.704 3234.11 51.432C3234.96 51.144 3235.42 51 3235.5 51C3235.92 51 3236.13 51.16 3236.13 51.48C3236.13 51.912 3235.64 52.384 3234.66 52.896C3233.69 53.392 3232.73 53.64 3231.81 53.64C3230.56 53.64 3229.54 53.272 3228.76 52.536C3227.97 51.784 3227.58 50.84 3227.58 49.704C3227.58 48.568 3227.89 47.384 3228.49 46.152C3229.1 44.904 3229.89 43.856 3230.85 43.008C3231.81 42.16 3232.76 41.736 3233.7 41.736C3234.65 41.736 3235.5 42.184 3236.27 43.08C3237.05 43.976 3237.45 44.856 3237.45 45.72ZM3233.82 43.632C3233.23 43.632 3232.61 43.944 3231.97 44.568C3231.33 45.176 3230.79 45.936 3230.34 46.848C3230.98 46.992 3231.71 47.064 3232.53 47.064C3233.34 47.064 3234.05 46.936 3234.66 46.68C3235.27 46.408 3235.57 46.056 3235.57 45.624C3235.57 45.192 3235.37 44.752 3234.97 44.304C3234.59 43.856 3234.21 43.632 3233.82 43.632ZM3252.17 53.64C3251.24 53.64 3250.37 53.28 3249.55 52.56C3248.74 51.824 3248.33 50.96 3248.33 49.968C3248.33 48.96 3248.67 47.8 3249.34 46.488C3250.01 45.176 3250.87 44.056 3251.93 43.128C3253 42.2 3254.04 41.736 3255.05 41.736C3255.71 41.736 3256.28 42.032 3256.78 42.624C3257.27 43.216 3257.52 43.736 3257.52 44.184C3257.52 44.312 3257.48 44.424 3257.4 44.52C3257.32 44.6 3257.2 44.64 3257.04 44.64C3256.9 44.64 3256.63 44.496 3256.25 44.208C3255.87 43.92 3255.52 43.776 3255.22 43.776C3254.35 43.776 3253.35 44.536 3252.19 46.056C3251.04 47.576 3250.47 48.904 3250.47 50.04C3250.47 50.536 3250.62 50.928 3250.92 51.216C3251.24 51.504 3251.75 51.648 3252.43 51.648C3253.14 51.648 3253.78 51.568 3254.35 51.408C3254.95 51.232 3255.4 51.064 3255.72 50.904C3256.04 50.728 3256.29 50.64 3256.47 50.64C3256.77 50.64 3256.92 50.792 3256.92 51.096C3256.92 51.56 3256.36 52.104 3255.24 52.728C3254.14 53.336 3253.11 53.64 3252.17 53.64ZM3266.24 45.816C3266.24 45.272 3266.15 44.76 3265.98 44.28C3265.8 43.784 3265.55 43.424 3265.21 43.2C3264.11 43.504 3263.15 44.36 3262.35 45.768C3261.57 47.16 3261.18 48.472 3261.18 49.704C3261.18 50.936 3261.48 51.704 3262.09 52.008C3263.24 51.784 3264.22 51 3265.02 49.656C3265.83 48.296 3266.24 47.016 3266.24 45.816ZM3259.93 46.032C3260.49 44.784 3261.22 43.76 3262.11 42.96C3263.03 42.144 3263.95 41.736 3264.9 41.736C3265.86 41.736 3266.66 42.144 3267.3 42.96C3267.94 43.76 3268.26 44.744 3268.26 45.912C3268.26 47.064 3267.98 48.248 3267.42 49.464C3266.86 50.664 3266.08 51.664 3265.09 52.464C3264.11 53.248 3263.07 53.64 3261.97 53.64C3261.15 53.64 3260.47 53.264 3259.93 52.512C3259.39 51.76 3259.11 50.808 3259.11 49.656C3259.11 48.488 3259.39 47.28 3259.93 46.032ZM3272.22 49.464C3273.76 46.856 3275.01 44.92 3275.97 43.656C3276.94 42.376 3277.73 41.736 3278.34 41.736C3278.97 41.736 3279.55 42.064 3280.09 42.72C3280.65 43.376 3280.93 44.072 3280.93 44.808C3280.93 45.96 3280.67 47.368 3280.14 49.032C3279.18 52.104 3278.32 53.64 3277.55 53.64C3277.2 53.64 3277.02 53.4 3277.02 52.92C3277.02 52.584 3277.19 51.904 3277.53 50.88C3277.88 49.84 3278.2 48.824 3278.49 47.832C3278.79 46.824 3278.94 46.072 3278.94 45.576C3278.94 45.064 3278.86 44.688 3278.7 44.448C3278.56 44.208 3278.41 44.088 3278.25 44.088C3278.1 44.088 3277.95 44.136 3277.79 44.232C3277.63 44.328 3277.45 44.488 3277.24 44.712C3277.05 44.936 3276.86 45.16 3276.69 45.384C3276.51 45.592 3276.29 45.896 3276.01 46.296C3275.76 46.696 3275.54 47.04 3275.37 47.328C3275.19 47.6 3274.93 48 3274.6 48.528C3274.26 49.056 3274.01 49.456 3273.83 49.728C3273.65 50 3273.42 50.368 3273.13 50.832C3272.85 51.296 3272.61 51.656 3272.44 51.912C3272.28 52.168 3272.09 52.448 3271.89 52.752C3271.49 53.344 3271.17 53.64 3270.93 53.64C3270.7 53.64 3270.44 53.464 3270.13 53.112C3269.83 52.744 3269.68 52.424 3269.68 52.152C3269.68 52.072 3269.73 51.856 3269.85 51.504C3270.15 50.576 3270.49 49.432 3270.85 48.072C3271.22 46.696 3271.42 45.136 3271.45 43.392C3271.5 42.224 3271.67 41.64 3271.96 41.64C3272.31 41.64 3272.66 41.824 3273.01 42.192C3273.37 42.56 3273.54 42.968 3273.54 43.416C3273.54 43.848 3273.41 44.696 3273.13 45.96C3272.88 47.208 3272.57 48.376 3272.22 49.464ZM3285.35 51.24C3285.35 51.544 3285.53 51.696 3285.88 51.696C3286.49 51.696 3287.23 51.528 3288.09 51.192C3288.97 50.84 3289.46 50.664 3289.55 50.664C3289.84 50.664 3289.99 50.816 3289.99 51.12C3289.99 51.584 3289.51 52.12 3288.55 52.728C3287.6 53.336 3286.74 53.64 3285.95 53.64C3285.19 53.64 3284.55 53.432 3284.03 53.016C3283.52 52.584 3283.27 52.144 3283.27 51.696C3283.27 51.248 3283.36 50.68 3283.55 49.992C3283.75 49.288 3284.02 48.368 3284.37 47.232C3284.74 46.08 3285.03 45.128 3285.23 44.376C3284.48 44.552 3283.98 44.64 3283.72 44.64C3283.47 44.64 3283.21 44.512 3282.95 44.256C3282.71 43.984 3282.59 43.728 3282.59 43.488C3282.59 43.104 3283.63 42.736 3285.71 42.384C3286 41.056 3286.15 39.88 3286.15 38.856C3286.15 38.376 3286.31 38.136 3286.63 38.136C3286.9 38.136 3287.23 38.312 3287.63 38.664C3288.03 39 3288.23 39.384 3288.23 39.816C3288.23 40.248 3288.1 41.008 3287.83 42.096C3288.74 42.016 3289.47 41.976 3290.01 41.976C3290.97 41.976 3291.45 42.184 3291.45 42.6C3291.45 42.84 3291.19 43.04 3290.66 43.2C3290.15 43.36 3289.06 43.608 3287.39 43.944C3287.06 45.208 3286.63 46.656 3286.12 48.288C3285.61 49.904 3285.35 50.888 3285.35 51.24ZM3295.02 38.328C3295.02 38.008 3295.15 37.704 3295.4 37.416C3295.66 37.128 3295.92 36.984 3296.17 36.984C3296.44 36.984 3296.76 37.312 3297.13 37.968C3297.5 38.608 3297.68 39.144 3297.68 39.576C3297.68 39.736 3297.61 39.88 3297.47 40.008C3297.32 40.136 3297.17 40.2 3297.01 40.2C3296.63 40.2 3296.2 39.968 3295.72 39.504C3295.25 39.04 3295.02 38.648 3295.02 38.328ZM3294.9 41.736C3295.2 41.736 3295.49 41.92 3295.76 42.288C3296.04 42.656 3296.17 43.016 3296.17 43.368C3296.17 43.72 3295.94 44.776 3295.48 46.536C3295.01 48.28 3294.43 50.24 3293.72 52.416C3293.45 53.216 3293.11 53.616 3292.69 53.616C3292.47 53.616 3292.28 53.528 3292.12 53.352C3291.96 53.16 3291.88 52.952 3291.88 52.728C3291.88 52.488 3291.93 52.12 3292.04 51.624C3292.17 51.112 3292.35 50.44 3292.57 49.608C3292.81 48.76 3293 48.072 3293.12 47.544C3293.27 47.016 3293.41 46.424 3293.56 45.768C3293.7 45.096 3293.81 44.56 3293.89 44.16C3293.99 43.744 3294.09 43.328 3294.2 42.912C3294.43 42.128 3294.66 41.736 3294.9 41.736ZM3300.02 49.464C3301.55 46.856 3302.8 44.92 3303.76 43.656C3304.74 42.376 3305.53 41.736 3306.14 41.736C3306.76 41.736 3307.35 42.064 3307.89 42.72C3308.45 43.376 3308.73 44.072 3308.73 44.808C3308.73 45.96 3308.47 47.368 3307.94 49.032C3306.98 52.104 3306.11 53.64 3305.35 53.64C3304.99 53.64 3304.82 53.4 3304.82 52.92C3304.82 52.584 3304.99 51.904 3305.32 50.88C3305.67 49.84 3305.99 48.824 3306.28 47.832C3306.59 46.824 3306.74 46.072 3306.74 45.576C3306.74 45.064 3306.66 44.688 3306.5 44.448C3306.35 44.208 3306.2 44.088 3306.04 44.088C3305.9 44.088 3305.75 44.136 3305.59 44.232C3305.43 44.328 3305.24 44.488 3305.03 44.712C3304.84 44.936 3304.66 45.16 3304.48 45.384C3304.31 45.592 3304.08 45.896 3303.81 46.296C3303.55 46.696 3303.34 47.04 3303.16 47.328C3302.99 47.6 3302.73 48 3302.39 48.528C3302.06 49.056 3301.8 49.456 3301.63 49.728C3301.45 50 3301.22 50.368 3300.93 50.832C3300.64 51.296 3300.41 51.656 3300.23 51.912C3300.07 52.168 3299.89 52.448 3299.68 52.752C3299.28 53.344 3298.96 53.64 3298.72 53.64C3298.5 53.64 3298.23 53.464 3297.93 53.112C3297.63 52.744 3297.47 52.424 3297.47 52.152C3297.47 52.072 3297.53 51.856 3297.64 51.504C3297.95 50.576 3298.28 49.432 3298.65 48.072C3299.02 46.696 3299.22 45.136 3299.25 43.392C3299.3 42.224 3299.47 41.64 3299.75 41.64C3300.11 41.64 3300.46 41.824 3300.81 42.192C3301.16 42.56 3301.34 42.968 3301.34 43.416C3301.34 43.848 3301.2 44.696 3300.93 45.96C3300.67 47.208 3300.37 48.376 3300.02 49.464ZM3318.96 42.408C3319.02 42.152 3319.09 41.976 3319.15 41.88C3319.21 41.784 3319.35 41.736 3319.56 41.736C3319.78 41.736 3320.05 41.944 3320.35 42.36C3320.67 42.776 3320.83 43.176 3320.83 43.56C3320.83 43.768 3320.48 45 3319.77 47.256C3319.07 49.512 3318.53 51.304 3318.14 52.632C3317.95 53.304 3317.68 53.64 3317.33 53.64C3317.12 53.64 3316.94 53.552 3316.8 53.376C3316.65 53.2 3316.58 52.88 3316.58 52.416C3316.58 51.952 3316.77 51.112 3317.13 49.896C3316.46 50.984 3315.73 51.88 3314.95 52.584C3314.17 53.288 3313.45 53.64 3312.79 53.64C3312.15 53.64 3311.54 53.336 3310.97 52.728C3310.39 52.12 3310.1 51.496 3310.1 50.856C3310.1 49.336 3310.54 47.44 3311.42 45.168C3312.32 42.88 3313.06 41.736 3313.65 41.736C3313.94 41.736 3314.19 41.872 3314.4 42.144C3314.62 42.4 3314.73 42.696 3314.73 43.032C3314.73 43.176 3314.52 43.696 3314.09 44.592C3313.65 45.472 3313.22 46.512 3312.79 47.712C3312.36 48.896 3312.14 49.936 3312.14 50.832C3312.14 51.088 3312.22 51.304 3312.38 51.48C3312.54 51.64 3312.73 51.72 3312.96 51.72C3313.57 51.72 3314.29 51.184 3315.12 50.112C3315.97 49.04 3316.73 47.792 3317.42 46.368C3318.11 44.944 3318.62 43.624 3318.96 42.408ZM3331.59 45.72C3331.59 46.568 3331.13 47.264 3330.2 47.808C3329.29 48.336 3328.25 48.6 3327.08 48.6C3325.93 48.6 3324.88 48.472 3323.94 48.216C3323.71 48.92 3323.6 49.552 3323.6 50.112C3323.6 50.656 3323.77 51.08 3324.11 51.384C3324.46 51.688 3325.03 51.84 3325.81 51.84C3326.61 51.84 3327.43 51.704 3328.26 51.432C3329.11 51.144 3329.57 51 3329.65 51C3330.07 51 3330.27 51.16 3330.27 51.48C3330.27 51.912 3329.79 52.384 3328.81 52.896C3327.83 53.392 3326.88 53.64 3325.95 53.64C3324.71 53.64 3323.69 53.272 3322.91 52.536C3322.12 51.784 3321.73 50.84 3321.73 49.704C3321.73 48.568 3322.03 47.384 3322.64 46.152C3323.25 44.904 3324.03 43.856 3324.99 43.008C3325.95 42.16 3326.91 41.736 3327.85 41.736C3328.79 41.736 3329.65 42.184 3330.42 43.08C3331.2 43.976 3331.59 44.856 3331.59 45.72ZM3327.97 43.632C3327.38 43.632 3326.76 43.944 3326.12 44.568C3325.48 45.176 3324.94 45.936 3324.49 46.848C3325.13 46.992 3325.86 47.064 3326.67 47.064C3327.49 47.064 3328.2 46.936 3328.81 46.68C3329.42 46.408 3329.72 46.056 3329.72 45.624C3329.72 45.192 3329.52 44.752 3329.12 44.304C3328.74 43.856 3328.35 43.632 3327.97 43.632ZM3343.09 35.016C3343.35 35.016 3343.66 35.256 3344.03 35.736C3344.41 36.2 3344.61 36.64 3344.61 37.056C3344.61 37.472 3344.41 38.656 3344.01 40.608C3343.61 42.544 3343.14 44.552 3342.61 46.632C3341.46 51.304 3340.7 53.64 3340.33 53.64C3340.11 53.64 3339.86 53.504 3339.59 53.232C3339.33 52.944 3339.21 52.696 3339.21 52.488C3339.21 52.28 3339.26 51.864 3339.37 51.24C3337.81 52.84 3336.44 53.64 3335.27 53.64C3334.57 53.64 3333.93 53.32 3333.35 52.68C3332.79 52.04 3332.51 51.376 3332.51 50.688C3332.51 49.696 3332.77 48.52 3333.3 47.16C3333.85 45.784 3334.62 44.536 3335.63 43.416C3336.64 42.296 3337.71 41.736 3338.85 41.736C3339.98 41.736 3340.77 42.416 3341.22 43.776C3342.04 40.384 3342.49 37.704 3342.57 35.736C3342.57 35.256 3342.74 35.016 3343.09 35.016ZM3340.45 46.8C3340.45 45.936 3340.3 45.208 3340 44.616C3339.71 44.024 3339.36 43.728 3338.94 43.728C3338.25 43.728 3337.55 44.152 3336.83 45C3336.11 45.848 3335.53 46.824 3335.1 47.928C3334.69 49.016 3334.48 49.96 3334.48 50.76C3334.48 51.048 3334.58 51.28 3334.79 51.456C3335 51.632 3335.25 51.72 3335.53 51.72C3336.16 51.72 3337 51.272 3338.05 50.376C3339.13 49.48 3339.9 48.424 3340.38 47.208L3340.45 46.92V46.8ZM3347.53 54.144C3347.13 54.144 3346.68 53.888 3346.17 53.376C3345.65 52.848 3345.4 52.416 3345.4 52.08C3345.4 51.728 3345.53 51.384 3345.81 51.048C3346.09 50.696 3346.38 50.52 3346.67 50.52C3346.97 50.52 3347.32 50.912 3347.7 51.696C3348.1 52.48 3348.3 53.072 3348.3 53.472C3348.3 53.6 3348.21 53.744 3348.04 53.904C3347.86 54.064 3347.69 54.144 3347.53 54.144ZM3353.23 54.144C3352.83 54.144 3352.37 53.888 3351.86 53.376C3351.35 52.848 3351.09 52.416 3351.09 52.08C3351.09 51.728 3351.23 51.384 3351.5 51.048C3351.79 50.696 3352.08 50.52 3352.37 50.52C3352.67 50.52 3353.01 50.912 3353.4 51.696C3353.8 52.48 3354 53.072 3354 53.472C3354 53.6 3353.91 53.744 3353.73 53.904C3353.56 54.064 3353.39 54.144 3353.23 54.144ZM3358.93 54.144C3358.53 54.144 3358.07 53.888 3357.56 53.376C3357.05 52.848 3356.79 52.416 3356.79 52.08C3356.79 51.728 3356.93 51.384 3357.2 51.048C3357.49 50.696 3357.77 50.52 3358.06 50.52C3358.37 50.52 3358.71 50.912 3359.09 51.696C3359.49 52.48 3359.69 53.072 3359.69 53.472C3359.69 53.6 3359.61 53.744 3359.43 53.904C3359.25 54.064 3359.09 54.144 3358.93 54.144ZM3364.62 54.144C3364.22 54.144 3363.76 53.888 3363.25 53.376C3362.74 52.848 3362.48 52.416 3362.48 52.08C3362.48 51.728 3362.62 51.384 3362.89 51.048C3363.18 50.696 3363.47 50.52 3363.76 50.52C3364.06 50.52 3364.4 50.912 3364.79 51.696C3365.19 52.48 3365.39 53.072 3365.39 53.472C3365.39 53.6 3365.3 53.744 3365.12 53.904C3364.95 54.064 3364.78 54.144 3364.62 54.144Z" fill="#585858"/>
<g clip-path="url(#clip0_1306_7562)">
<path fill-rule="evenodd" clip-rule="evenodd" d="M3403 12.3483C3403.66 11.5517 3403.12 10.342 3402.09 10.3004L3372.52 9.11174C3371.7 9.07857 3371.07 9.8405 3371.25 10.6447L3373.65 20.9147L3374.41 24.159L3392.06 16.6183C3392.38 16.4817 3392.64 16.9076 3392.37 17.127L3375.89 30.5189L3378.51 41.7324C3378.51 41.7406 3378.51 41.7446 3378.51 41.7461C3378.51 41.7478 3378.51 41.749 3378.52 41.7501C3378.52 41.7528 3378.52 41.7573 3378.53 41.76C3378.54 41.7627 3378.55 41.762 3378.56 41.761C3378.56 41.7606 3378.56 41.7601 3378.56 41.7591L3378.56 41.7577L3403 12.3483ZM3402.15 8.80159C3404.43 8.89311 3405.61 11.5546 3404.15 13.3069L3379.69 42.747L3379.67 42.7668L3379.66 42.7855C3378.81 43.6693 3377.32 43.2632 3377.05 42.0733L3374.38 30.665L3367.87 28.8062C3365.59 28.1538 3365.15 25.1062 3367.16 23.837L3372.07 20.736L3369.79 10.9856C3369.38 9.21623 3370.77 7.53997 3372.58 7.61295L3402.15 8.80159ZM3368.29 27.3638L3374 28.9937L3373.64 27.462L3372.43 22.2824L3367.96 25.1051C3367.05 25.682 3367.25 27.0673 3368.29 27.3638Z" fill="#585858"/>
</g>
<defs>
<clipPath id="clip0_1306_7562">
<rect width="42" height="42" fill="white" transform="matrix(0.173322 -0.984865 -0.984865 -0.173322 3401.36 48.6438)"/>
</clipPath>
</defs>
</svg>
