<svg width="421" height="373" viewBox="0 0 421 373" fill="none" xmlns="http://www.w3.org/2000/svg">
<rect width="376.492" height="104.234" transform="translate(13.5203 25.2488) rotate(-3.78415)" fill="#3A1B93"/>
<path d="M80.4105 61.2219C79.7506 61.2655 79.0652 61.2467 78.3543 61.1654C77.642 61.0629 77.046 60.942 76.5664 60.8027L76.3595 57.6735C76.8107 57.7078 77.3045 57.7393 77.8409 57.7679C78.3759 57.7753 78.8669 57.7642 79.314 57.7346C79.91 57.6952 80.4046 57.577 80.7978 57.3799C81.1896 57.1616 81.4792 56.8538 81.6667 56.4566C81.8741 56.0366 81.9546 55.4754 81.9081 54.773L80.755 37.3391L84.7144 37.0772L85.9055 55.0858C85.9928 56.4056 85.8517 57.5053 85.4823 58.385C85.1342 59.2632 84.5371 59.9334 83.6911 60.3956C82.8664 60.8563 81.7729 61.1318 80.4105 61.2219ZM95.4324 60.2283C93.8572 60.3325 92.6043 59.977 91.6739 59.162C90.742 58.3257 90.2197 57.0561 90.1071 55.3531L89.3066 43.2516L93.266 42.9897L93.9904 53.9417C94.065 55.07 94.3704 55.8087 94.9067 56.1581C95.4642 56.5061 96.1899 56.6505 97.084 56.5914C97.829 56.5421 98.545 56.3771 99.232 56.0965C99.919 55.8159 100.556 55.4317 101.144 54.9438L100.323 42.5229L104.282 42.2611L105.414 59.3757L102.189 59.589L101.336 57.8495C100.561 58.4138 99.6655 58.9328 98.6492 59.4062C97.6542 59.8782 96.5819 60.1523 95.4324 60.2283ZM109.398 59.1122L108.266 41.9975L111.491 41.7842L112.344 43.5238C113.095 42.9182 113.925 42.3822 114.835 41.9158C115.765 41.4267 116.879 41.1392 118.177 41.0534C119.242 40.983 120.151 41.158 120.906 41.5784C121.68 41.9762 122.273 42.525 122.682 43.2248C123.147 42.8092 123.707 42.398 124.365 41.9911C125.042 41.5614 125.766 41.1928 126.536 40.8853C127.307 40.5778 128.076 40.3987 128.842 40.348C130.162 40.2607 131.233 40.4571 132.056 40.9372C132.899 41.3945 133.521 42.0803 133.924 42.9944C134.325 43.8872 134.566 44.9402 134.646 46.1536L135.389 57.393L131.43 57.6549L130.708 46.7348C130.667 46.1175 130.515 45.6037 130.253 45.1934C129.991 44.7832 129.639 44.4751 129.198 44.2691C128.778 44.0617 128.27 43.9777 127.674 44.0171C126.907 44.0678 126.14 44.2682 125.372 44.6183C124.626 44.967 123.947 45.3753 123.337 45.8433C123.436 46.0505 123.505 46.2812 123.543 46.5352C123.602 46.7878 123.64 47.0419 123.657 47.2973L124.373 58.1217L120.414 58.3835L119.692 47.4634C119.651 46.8461 119.499 46.3323 119.237 45.922C118.975 45.5118 118.623 45.2037 118.182 44.9977C117.762 44.7903 117.254 44.7063 116.658 44.7457C116.104 44.7823 115.586 44.87 115.104 45.0088C114.642 45.1463 114.206 45.3355 113.794 45.5765C113.383 45.8175 112.963 46.1018 112.536 46.4294L113.357 58.8503L109.398 59.1122ZM139.802 64.7017L138.169 40.0197L141.458 39.8021L142.241 41.4501C142.624 41.104 143.072 40.7644 143.584 40.4312C144.097 40.098 144.656 39.8258 145.262 39.6147C145.867 39.3823 146.499 39.2442 147.159 39.2006C148.245 39.1288 149.185 39.2804 149.979 39.6555C150.795 40.0291 151.474 40.5935 152.015 41.3488C152.556 42.0827 152.968 42.9855 153.253 44.057C153.557 45.1059 153.752 46.2795 153.838 47.578C153.962 49.4513 153.866 51.0612 153.548 52.4077C153.251 53.7315 152.678 54.7636 151.829 55.5039C151.001 56.2428 149.832 56.6623 148.32 56.7622C147.469 56.8185 146.589 56.7592 145.679 56.5842C144.791 56.4077 143.961 56.1526 143.191 55.8187L143.761 64.4399L139.802 64.7017ZM146.86 53.5877C147.477 53.5469 148.031 53.3499 148.52 52.9968C149.009 52.6224 149.376 52.0316 149.622 51.2243C149.889 50.4155 149.975 49.2874 149.879 47.8399C149.788 46.4563 149.565 45.3592 149.212 44.5487C148.859 43.7383 148.416 43.1796 147.883 42.8728C147.371 42.5646 146.795 42.4316 146.157 42.4739C145.369 42.526 144.664 42.7009 144.043 42.9985C143.42 43.2749 142.872 43.557 142.399 43.8449L142.99 52.7853C143.565 53.068 144.189 53.2833 144.861 53.4313C145.534 53.5792 146.2 53.6314 146.86 53.5877ZM157.116 36.0405C156.712 36.0673 156.497 35.8891 156.472 35.5059L156.279 32.6003C156.251 32.1745 156.439 31.9483 156.844 31.9215L159.845 31.723C160.037 31.7103 160.179 31.7651 160.273 31.8871C160.388 32.0078 160.451 32.1533 160.462 32.3236L160.654 35.2293C160.68 35.6124 160.501 35.8167 160.118 35.842L157.116 36.0405ZM157.917 55.903L156.785 38.7884L160.744 38.5265L161.876 55.6411L157.917 55.903ZM165.931 55.373L164.799 38.2584L168.024 38.045L168.876 39.7846C169.544 39.2059 170.363 38.6707 171.336 38.1787C172.329 37.6854 173.369 37.4029 174.455 37.3311C175.796 37.2424 176.868 37.4494 177.671 37.9522C178.472 38.4337 179.063 39.1215 179.443 40.0157C179.844 40.9085 180.08 41.8977 180.152 42.9834L180.906 54.3825L176.947 54.6443L176.224 43.7242C176.184 43.1069 176.032 42.5931 175.77 42.1828C175.507 41.7726 175.156 41.4645 174.714 41.2585C174.294 41.0511 173.786 40.9671 173.19 41.0065C172.637 41.0431 172.119 41.1308 171.636 41.2696C171.175 41.4071 170.739 41.5963 170.327 41.8373C169.915 42.0783 169.496 42.3626 169.068 42.6902L169.89 55.1111L165.931 55.373ZM189.754 61.7185C188.669 61.7903 187.689 61.6947 186.817 61.4317C185.946 61.19 185.244 60.7661 184.712 60.1598C184.203 59.5735 183.919 58.8333 183.86 57.9393L183.82 57.3326C183.758 56.396 183.971 55.5801 184.46 54.885C184.95 54.2112 185.598 53.6766 186.406 53.2811C187.214 52.8856 188.065 52.6583 188.959 52.5991L190.195 53.8322C189.662 53.8674 189.189 53.9843 188.775 54.1827C188.36 54.3812 188.037 54.6591 187.804 55.0166C187.571 55.3741 187.471 55.8083 187.505 56.3192L187.539 56.83C187.589 57.5964 187.881 58.1329 188.415 58.4397C188.95 58.7678 189.685 58.9009 190.622 58.8389L194.102 58.6087C195.082 58.544 195.835 58.3017 196.363 57.8819C196.914 57.482 197.164 56.8989 197.114 56.1326L197.078 55.5898C197.047 55.1215 196.925 54.734 196.712 54.4274C196.499 54.1208 196.174 53.8857 195.735 53.7223C195.298 53.5802 194.718 53.533 193.994 53.5809L189.716 53.8639C188.013 53.9765 186.703 53.7318 185.787 53.1296C184.892 52.526 184.411 51.724 184.345 50.7235C184.288 49.8721 184.487 49.1534 184.94 48.5676C185.414 47.9803 186.092 47.5613 186.973 47.3106C186.227 47.0179 185.623 46.6195 185.162 46.1155C184.723 45.6101 184.397 45.0544 184.186 44.4483C183.975 43.8423 183.848 43.2199 183.806 42.5813C183.72 41.2828 183.917 40.2115 184.395 39.3674C184.873 38.502 185.609 37.844 186.606 37.3932C187.601 36.9212 188.854 36.6352 190.365 36.5352L199.593 35.9249L199.739 38.1281L196.733 38.7438C196.96 38.9426 197.2 39.1833 197.454 39.4658C197.729 39.7469 197.968 40.1266 198.171 40.605C198.374 41.0833 198.501 41.7163 198.553 42.5039C198.617 43.4618 198.472 44.3479 198.12 45.1623C197.789 45.9752 197.192 46.6454 196.329 47.1729C195.465 47.7003 194.278 48.014 192.767 48.114L189.861 48.3062C189.18 48.3512 188.634 48.4943 188.222 48.7353C187.81 48.9763 187.621 49.3523 187.655 49.8632C187.683 50.2889 187.873 50.5757 188.225 50.7234C188.577 50.8712 188.945 50.9324 189.328 50.9071L194.405 50.5713C195.703 50.4854 196.811 50.5832 197.727 50.8646C198.665 51.1447 199.392 51.6311 199.908 52.3239C200.424 53.0166 200.722 53.9591 200.801 55.1511L200.837 55.6939C200.945 57.333 200.498 58.6561 199.496 59.6631C198.515 60.6687 196.938 61.2433 194.767 61.3869L189.754 61.7185ZM190.303 45.2944L192.155 45.1719C192.943 45.1198 193.542 44.9626 193.952 44.7003C194.382 44.4153 194.658 44.0657 194.781 43.6514C194.923 43.2144 194.977 42.7404 194.943 42.2295C194.895 41.5058 194.74 40.9388 194.478 40.5285C194.236 40.0956 193.895 39.7974 193.457 39.634C193.04 39.4692 192.533 39.4064 191.937 39.4459L190.149 39.5641C189.191 39.6275 188.471 39.8889 187.988 40.3485C187.527 40.8066 187.33 41.5465 187.397 42.5683C187.465 43.5901 187.748 44.3196 188.247 44.7569C188.745 45.173 189.431 45.3522 190.303 45.2944ZM210.936 32.4808C210.532 32.5075 210.317 32.3293 210.292 31.9462L210.099 29.0405C210.071 28.6148 210.259 28.3885 210.664 28.3618L213.665 28.1632C213.857 28.1506 213.999 28.2053 214.093 28.3274C214.208 28.4481 214.271 28.5935 214.282 28.7638L214.474 31.6695C214.5 32.0527 214.321 32.2569 213.938 32.2822L210.936 32.4808ZM211.737 52.3432L210.605 35.2286L214.564 34.9668L215.696 52.0814L211.737 52.3432ZM219.751 51.8132L218.619 34.6986L221.844 34.4853L222.696 36.2248C223.363 35.6462 224.183 35.1109 225.156 34.619C226.149 34.1257 227.189 33.8431 228.274 33.7713C229.616 33.6826 230.688 33.8896 231.49 34.3924C232.292 34.8739 232.883 35.5617 233.263 36.456C233.664 37.3488 233.9 38.338 233.972 39.4236L234.726 50.8227L230.767 51.0846L230.044 40.1644C230.003 39.5471 229.852 39.0333 229.59 38.6231C229.327 38.2128 228.975 37.9047 228.534 37.6987C228.114 37.4913 227.606 37.4073 227.01 37.4467C226.457 37.4834 225.939 37.5711 225.456 37.7099C224.995 37.8473 224.559 38.0365 224.147 38.2775C223.735 38.5186 223.316 38.8029 222.888 39.1305L223.71 51.5513L219.751 51.8132ZM244.904 50.1495C243.67 50.2311 242.647 50.1171 241.835 49.8073C241.022 49.4762 240.406 48.8863 239.986 48.0374C239.588 47.1872 239.352 46.0483 239.279 44.6207L238.875 36.5658L236.193 36.7432L236.024 34.1888L238.791 33.3643L239.049 28.5368L242.146 28.3319L242.463 33.1215L246.806 32.8342L247.017 36.0273L242.674 36.3145L243.205 44.329C243.241 44.8824 243.325 45.3366 243.455 45.6914C243.584 46.025 243.751 46.2918 243.957 46.492C244.182 46.6695 244.415 46.7931 244.655 46.8628C244.895 46.9324 245.143 46.9695 245.4 46.9738L247.554 47.0559L247.746 49.9615L244.904 50.1495ZM258.002 49.4435C256.661 49.5322 255.491 49.4706 254.494 49.2586C253.496 49.0467 252.667 48.6312 252.006 48.0121C251.345 47.393 250.829 46.5293 250.456 45.4208C250.083 44.3123 249.841 42.9066 249.728 41.2036C249.611 39.4368 249.664 37.9794 249.888 36.8315C250.11 35.6623 250.508 34.738 251.083 34.0586C251.678 33.3565 252.458 32.8559 253.421 32.557C254.384 32.2368 255.525 32.033 256.845 31.9458C258.207 31.8556 259.387 31.9166 260.384 32.1285C261.38 32.3192 262.208 32.7134 262.868 33.3112C263.527 33.909 264.044 34.7728 264.418 35.9025C264.791 37.011 265.035 38.438 265.15 40.1835C265.264 41.9078 265.21 43.3545 264.988 44.5237C264.786 45.6702 264.398 46.5938 263.825 47.2945C263.25 47.974 262.482 48.4844 261.521 48.8259C260.558 49.1461 259.385 49.352 258.002 49.4435ZM257.793 46.2824C258.453 46.2388 259.013 46.1483 259.475 46.0108C259.934 45.8521 260.301 45.582 260.575 45.2004C260.869 44.7961 261.066 44.2166 261.166 43.4617C261.264 42.6855 261.272 41.6694 261.189 40.4135C261.107 39.1789 260.967 38.194 260.769 37.4588C260.571 36.7236 260.3 36.1856 259.957 35.8449C259.633 35.4814 259.234 35.262 258.759 35.1865C258.282 35.0897 257.713 35.0632 257.054 35.1068C256.415 35.1491 255.866 35.2496 255.406 35.4082C254.945 35.5457 254.578 35.8158 254.305 36.2187C254.031 36.6003 253.833 37.1692 253.712 37.9255C253.613 38.6804 253.604 39.6752 253.685 40.9098C253.768 42.1657 253.91 43.1719 254.109 43.9284C254.329 44.6622 254.6 45.2108 254.924 45.5742C255.246 45.9164 255.645 46.1359 256.122 46.2326C256.597 46.3081 257.154 46.3247 257.793 46.2824ZM283.819 47.5755C282.585 47.6572 281.562 47.5431 280.75 47.2334C279.937 46.9023 279.321 46.3124 278.901 45.4635C278.503 44.6133 278.267 43.4744 278.194 42.0467L277.79 33.9919L275.108 34.1693L274.939 31.6149L277.706 30.7904L277.964 25.9629L281.061 25.758L281.378 30.5475L285.721 30.2603L285.932 33.4533L281.589 33.7406L282.12 41.755C282.156 42.3085 282.24 42.7626 282.37 43.1175C282.499 43.451 282.666 43.7179 282.872 43.9181C283.097 44.0956 283.33 44.2192 283.57 44.2888C283.81 44.3585 284.058 44.3955 284.315 44.3999L286.469 44.4819L286.661 47.3876L283.819 47.5755ZM289.754 47.183L288.145 22.8522L292.104 22.5903L292.7 31.5946C293.347 31.0387 294.167 30.5141 295.161 30.0207C296.174 29.5047 297.224 29.2108 298.31 29.139C299.566 29.0559 300.594 29.2445 301.394 29.7047C302.215 30.1635 302.826 30.8393 303.228 31.7321C303.649 32.6022 303.897 33.612 303.973 34.7615L304.729 46.1925L300.77 46.4544L300.045 35.5023C300.006 34.9063 299.855 34.4032 299.593 33.9929C299.329 33.5614 298.977 33.2533 298.538 33.0685C298.096 32.8626 297.588 32.7786 297.014 32.8166C296.46 32.8532 295.953 32.9508 295.494 33.1095C295.032 33.2469 294.585 33.4369 294.152 33.6793C293.741 33.9203 293.32 34.194 292.892 34.5003L293.713 46.9211L289.754 47.183ZM315.685 45.6283C313.833 45.7508 312.336 45.5932 311.196 45.1555C310.076 44.7164 309.23 43.8851 308.657 42.6616C308.083 41.4167 307.722 39.6661 307.572 37.4097C307.42 35.1107 307.537 33.3178 307.922 32.0309C308.306 30.7227 309.024 29.7773 310.076 29.1946C311.128 28.6119 312.579 28.2593 314.431 28.1368C316.071 28.0284 317.391 28.1121 318.393 28.3879C319.414 28.6411 320.177 29.1786 320.68 30.0005C321.203 30.7997 321.516 31.9656 321.617 33.4983C321.689 34.5839 321.534 35.4708 321.152 36.1588C320.768 36.8256 320.181 37.3241 319.39 37.6543C318.621 37.9831 317.694 38.1834 316.608 38.2552L311.595 38.5868C311.708 39.6483 311.903 40.4907 312.179 41.1138C312.475 41.7142 312.952 42.1317 313.609 42.3662C314.287 42.5992 315.254 42.6742 316.51 42.5912L321.683 42.249L321.837 44.5799C320.975 44.808 320.059 45.0182 319.088 45.2107C318.139 45.4018 317.004 45.541 315.685 45.6283ZM311.405 36.1942L316.066 35.8858C316.811 35.8365 317.345 35.6623 317.667 35.363C318.01 35.0411 318.155 34.4969 318.105 33.7306C318.055 32.9856 317.91 32.4072 317.669 31.9956C317.428 31.5839 317.057 31.3091 316.556 31.1712C316.054 31.012 315.409 30.9585 314.622 31.0106C313.727 31.0697 313.034 31.2545 312.542 31.565C312.049 31.8756 311.71 32.4004 311.523 33.1397C311.357 33.8562 311.317 34.8744 311.405 36.1942ZM109.784 104.185L108.226 80.6204L117.964 79.9763C119.497 79.8749 120.793 80.0672 121.851 80.553C122.929 81.0162 123.811 81.7489 124.498 82.7511C125.183 83.7321 125.701 84.9378 126.052 86.3685C126.424 87.7977 126.67 89.4169 126.79 91.2263C126.962 93.8233 126.807 96.0143 126.327 97.7992C125.845 99.5629 125.037 100.931 123.905 101.904C122.772 102.877 121.311 103.423 119.523 103.541L109.784 104.185ZM113.477 100.381L118.905 100.022C119.991 99.9501 120.832 99.5737 121.428 98.8929C122.046 98.2107 122.463 97.2424 122.679 95.988C122.917 94.7322 122.978 93.2316 122.863 91.4861C122.756 89.8683 122.571 88.5336 122.309 87.4819C122.047 86.4302 121.715 85.6077 121.312 85.0143C120.909 84.4209 120.412 84.0155 119.821 83.7981C119.25 83.5793 118.582 83.4952 117.816 83.5459L112.387 83.9049L113.477 100.381ZM137.862 102.488C136.01 102.611 134.514 102.453 133.373 102.015C132.254 101.576 131.408 100.745 130.835 99.5215C130.261 98.2766 129.899 96.526 129.75 94.2696C129.598 91.9706 129.714 90.1777 130.1 88.8908C130.484 87.5826 131.201 86.6372 132.253 86.0545C133.305 85.4718 134.757 85.1192 136.609 84.9967C138.248 84.8883 139.568 84.972 140.57 85.2478C141.592 85.501 142.354 86.0385 142.857 86.8604C143.381 87.6596 143.693 88.8255 143.794 90.3582C143.866 91.4438 143.711 92.3307 143.329 93.0187C142.945 93.6855 142.358 94.184 141.568 94.5142C140.799 94.843 139.871 95.0433 138.785 95.1151L133.772 95.4467C133.885 96.5082 134.08 97.3506 134.356 97.9737C134.653 98.5741 135.129 98.9916 135.786 99.226C136.464 99.4591 137.431 99.5341 138.687 99.4511L143.86 99.1089L144.014 101.44C143.153 101.668 142.237 101.878 141.266 102.071C140.316 102.262 139.182 102.401 137.862 102.488ZM133.582 93.0541L138.244 92.7457C138.989 92.6964 139.523 92.5222 139.845 92.2229C140.187 91.901 140.333 91.3568 140.282 90.5905C140.233 89.8455 140.088 89.2671 139.847 88.8555C139.606 88.4438 139.235 88.169 138.734 88.0311C138.231 87.8719 137.587 87.8184 136.799 87.8704C135.905 87.9296 135.212 88.1144 134.719 88.4249C134.226 88.7354 133.887 89.2603 133.701 89.9996C133.534 90.7161 133.495 91.7343 133.582 93.0541ZM154.214 101.439C153.725 101.471 153.159 101.487 152.518 101.487C151.899 101.506 151.268 101.505 150.626 101.484C150.005 101.482 149.426 101.456 148.889 101.406C148.351 101.356 147.908 101.289 147.56 101.205L147.406 98.8744L154.782 98.3865C155.314 98.3513 155.759 98.2792 156.115 98.1701C156.492 98.0596 156.768 97.8703 156.943 97.6022C157.118 97.3341 157.188 96.9446 157.154 96.4337L157.114 95.827C157.079 95.2948 156.871 94.8917 156.489 94.6176C156.127 94.3209 155.51 94.2013 154.637 94.2591L152.051 94.4301C151.051 94.4963 150.147 94.4171 149.342 94.1924C148.557 93.9664 147.919 93.5382 147.429 92.9079C146.938 92.2776 146.655 91.3983 146.581 90.2701L146.517 89.3122C146.445 88.2266 146.589 87.3191 146.947 86.5899C147.324 85.838 147.98 85.2494 148.914 84.8242C149.868 84.3763 151.154 84.0988 152.772 83.9918C153.453 83.9468 154.189 83.9301 154.981 83.9419C155.773 83.9536 156.534 83.9888 157.265 84.0474C157.995 84.0847 158.576 84.1531 159.011 84.2526L159.165 86.5835L152.204 87.0439C151.416 87.096 150.819 87.2745 150.411 87.5794C150.024 87.8616 149.854 88.3646 149.902 89.0883L149.942 89.695C149.973 90.1633 150.092 90.5082 150.299 90.7297C150.506 90.9512 150.804 91.0918 151.193 91.1516C151.582 91.2114 152.042 91.2237 152.574 91.1885L155.225 91.0132C156.906 90.902 158.177 91.2028 159.036 91.9156C159.896 92.6285 160.372 93.6873 160.465 95.0923L160.558 96.4972C160.634 97.6467 160.428 98.569 159.939 99.2641C159.451 99.9592 158.715 100.478 157.733 100.821C156.771 101.141 155.598 101.347 154.214 101.439ZM163.329 80.7279C162.925 80.7547 162.71 80.5765 162.684 80.1933L162.492 77.2877C162.464 76.8619 162.652 76.6357 163.057 76.6089L166.058 76.4104C166.25 76.3977 166.392 76.4524 166.486 76.5745C166.601 76.6952 166.664 76.8407 166.675 77.011L166.867 79.9167C166.893 80.2998 166.714 80.5041 166.331 80.5294L163.329 80.7279ZM164.13 100.59L162.998 83.4758L166.957 83.2139L168.089 100.329L164.13 100.59ZM177.04 107.658C175.954 107.73 174.975 107.634 174.102 107.371C173.231 107.129 172.53 106.705 171.998 106.099C171.489 105.513 171.204 104.773 171.145 103.879L171.105 103.272C171.043 102.335 171.257 101.519 171.745 100.824C172.235 100.151 172.884 99.6159 173.691 99.2204C174.499 98.8249 175.35 98.5975 176.244 98.5384L177.48 99.7715C176.948 99.8067 176.475 99.9235 176.06 100.122C175.646 100.32 175.322 100.598 175.089 100.956C174.856 101.313 174.757 101.748 174.79 102.258L174.824 102.769C174.875 103.536 175.167 104.072 175.7 104.379C176.235 104.707 176.971 104.84 177.907 104.778L181.388 104.548C182.367 104.483 183.121 104.241 183.649 103.821C184.2 103.421 184.45 102.838 184.399 102.072L184.363 101.529C184.332 101.061 184.21 100.673 183.998 100.367C183.785 100.06 183.459 99.825 183.021 99.6616C182.584 99.5195 182.004 99.4723 181.28 99.5202L177.001 99.8032C175.298 99.9158 173.989 99.6711 173.072 99.0689C172.177 98.4653 171.696 97.6633 171.63 96.6628C171.574 95.8114 171.772 95.0927 172.225 94.5069C172.699 93.9196 173.377 93.5006 174.259 93.2499C173.512 92.9572 172.909 92.5588 172.448 92.0548C172.008 91.5494 171.683 90.9937 171.472 90.3876C171.261 89.7816 171.134 89.1592 171.092 88.5206C171.006 87.2221 171.202 86.1508 171.681 85.3067C172.158 84.4413 172.895 83.7833 173.891 83.3325C174.886 82.8605 176.14 82.5745 177.651 82.4745L186.879 81.8642L187.024 84.0674L184.019 84.6831C184.245 84.8819 184.486 85.1225 184.74 85.4051C185.015 85.6862 185.254 86.0659 185.457 86.5443C185.659 87.0226 185.787 87.6556 185.839 88.4432C185.902 89.4011 185.758 90.2872 185.405 91.1016C185.074 91.9145 184.477 92.5847 183.614 93.1122C182.751 93.6396 181.564 93.9533 180.052 94.0533L177.147 94.2455C176.465 94.2905 175.919 94.4336 175.507 94.6746C175.096 94.9156 174.907 95.2916 174.941 95.8025C174.969 96.2282 175.159 96.515 175.511 96.6627C175.862 96.8105 176.23 96.8717 176.613 96.8464L181.69 96.5106C182.989 96.4247 184.096 96.5225 185.013 96.8039C185.951 97.084 186.678 97.5704 187.194 98.2632C187.71 98.9559 188.007 99.8983 188.086 101.09L188.122 101.633C188.231 103.272 187.784 104.595 186.781 105.602C185.8 106.608 184.224 107.183 182.053 107.326L177.04 107.658ZM177.589 91.2337L179.441 91.1112C180.228 91.0591 180.827 90.9019 181.238 90.6396C181.668 90.3546 181.944 90.005 182.066 89.5907C182.208 89.1537 182.262 88.6797 182.229 88.1688C182.181 87.4451 182.026 86.8781 181.763 86.4678C181.521 86.0349 181.181 85.7367 180.742 85.5733C180.325 85.4084 179.818 85.3457 179.222 85.3852L177.434 85.5034C176.476 85.5668 175.756 85.8282 175.273 86.2878C174.812 86.7459 174.615 87.4858 174.683 88.5076C174.75 89.5294 175.034 90.2589 175.533 90.6962C176.031 91.1123 176.716 91.2915 177.589 91.2337ZM190.666 98.8353L189.534 81.7207L192.758 81.5074L193.611 83.2469C194.278 82.6682 195.098 82.133 196.071 81.6411C197.064 81.1477 198.104 80.8652 199.189 80.7934C200.53 80.7047 201.602 80.9117 202.405 81.4145C203.207 81.896 203.798 82.5838 204.177 83.478C204.579 84.3708 204.815 85.36 204.887 86.4457L205.641 97.8448L201.681 98.1066L200.959 87.1865C200.918 86.5692 200.767 86.0554 200.504 85.6452C200.242 85.2349 199.89 84.9268 199.449 84.7208C199.029 84.5134 198.521 84.4294 197.925 84.4688C197.372 84.5054 196.854 84.5931 196.371 84.732C195.91 84.8694 195.473 85.0586 195.062 85.2996C194.65 85.5406 194.231 85.8249 193.803 86.1525L194.625 98.5734L190.666 98.8353ZM222.452 96.7329L215.114 73.5506L219.201 73.2803L224.626 90.8165L228.365 72.6741L232.069 72.4292L238.133 89.9231L241.201 71.8251L245.288 71.5548L241.067 95.5016L236.98 95.7719L230.595 78.2672L226.539 96.4625L222.452 96.7329ZM255.484 94.7084C254.143 94.7971 252.973 94.7355 251.976 94.5235C250.978 94.3115 250.149 93.896 249.488 93.277C248.827 92.6579 248.31 91.7941 247.938 90.6856C247.565 89.5772 247.323 88.1714 247.21 86.4685C247.093 84.7017 247.146 83.2443 247.37 82.0964C247.592 80.9272 247.99 80.0029 248.565 79.3235C249.16 78.6213 249.94 78.1208 250.903 77.8219C251.866 77.5017 253.007 77.2979 254.326 77.2106C255.689 77.1205 256.869 77.1814 257.866 77.3934C258.862 77.5841 259.69 77.9783 260.35 78.5761C261.009 79.1739 261.526 80.0376 261.9 81.1674C262.273 82.2759 262.517 83.7029 262.632 85.4484C262.746 87.1727 262.692 88.6194 262.47 89.7886C262.268 90.9351 261.88 91.8587 261.307 92.5594C260.732 93.2389 259.964 93.7493 259.003 94.0908C258.04 94.411 256.867 94.6169 255.484 94.7084ZM255.275 91.5473C255.935 91.5037 256.495 91.4131 256.956 91.2757C257.416 91.117 257.783 90.8469 258.057 90.4653C258.351 90.061 258.548 89.4814 258.648 88.7265C258.746 87.9504 258.754 86.9343 258.671 85.6784C258.589 84.4437 258.449 83.4588 258.251 82.7237C258.053 81.9885 257.782 81.4505 257.439 81.1097C257.115 80.7463 256.716 80.5268 256.24 80.4514C255.764 80.3546 255.195 80.3281 254.535 80.3717C253.897 80.414 253.348 80.5144 252.888 80.6731C252.427 80.8105 252.06 81.0807 251.787 81.4836C251.513 81.8651 251.315 82.4341 251.194 83.1904C251.094 83.9453 251.085 84.94 251.167 86.1747C251.25 87.4306 251.392 88.4368 251.591 89.1933C251.811 89.927 252.082 90.4757 252.406 90.8391C252.728 91.1813 253.127 91.4007 253.604 91.4975C254.079 91.5729 254.636 91.5895 255.275 91.5473ZM266.718 93.805L265.586 76.6904L268.651 76.4876L269.727 79.1745C270.353 78.2993 271.063 77.5468 271.855 76.9172C272.647 76.2875 273.618 75.9347 274.767 75.8586C275.001 75.8431 275.248 75.8482 275.506 75.8739C275.763 75.8783 276 75.9054 276.217 75.9552L276.483 79.9784C276.182 79.9555 275.861 79.9447 275.519 79.946C275.177 79.9472 274.846 79.9584 274.527 79.9795C273.867 80.0231 273.265 80.1378 272.721 80.3234C272.199 80.5076 271.714 80.7748 271.267 81.1251C270.819 81.4541 270.376 81.8682 269.938 82.3675L270.677 93.5431L266.718 93.805ZM285.176 92.6483C284.048 92.7229 283.088 92.594 282.296 92.2615C281.526 91.9276 280.923 91.3689 280.486 90.5853C280.071 89.8004 279.818 88.7373 279.73 87.3963L278.484 68.5574L282.443 68.2956L283.653 86.5916C283.704 87.3579 283.818 87.949 283.995 88.3649C284.193 88.7794 284.448 89.0725 284.759 89.2444C285.068 89.395 285.438 89.4881 285.868 89.5238L287.317 89.6204L287.507 92.4941L285.176 92.6483ZM295.456 92.0967C294.114 92.1854 292.967 91.9726 292.014 91.4584C291.059 90.9229 290.306 90.0427 289.755 88.8177C289.223 87.5701 288.891 85.9352 288.757 83.9129C288.616 81.7842 288.705 80.0573 289.023 78.732C289.341 77.3855 289.948 76.3832 290.845 75.7252C291.762 75.0446 293.019 74.6514 294.615 74.5458C295.467 74.4895 296.313 74.519 297.155 74.6344C297.996 74.7498 298.733 74.9042 299.366 75.0975L298.844 67.2107L302.804 66.9488L304.415 91.3116L301.126 91.5291L300.346 89.9131C300.027 90.255 299.589 90.5832 299.032 90.898C298.497 91.2113 297.917 91.4849 297.291 91.7187C296.685 91.9298 296.073 92.0558 295.456 92.0967ZM296.585 88.8149C297.352 88.7642 298.036 88.6014 298.638 88.3264C299.238 88.0301 299.753 87.7395 300.183 87.4545L299.554 77.9393C299.009 77.7829 298.455 77.6485 297.892 77.5361C297.329 77.4237 296.717 77.3893 296.057 77.433C295.163 77.4921 294.451 77.7103 293.92 78.0875C293.387 78.4434 293.021 79.0449 292.82 79.892C292.641 80.7376 292.602 81.9268 292.703 83.4594C292.798 84.8857 292.99 86.0061 293.279 86.8208C293.566 87.6142 293.977 88.1643 294.51 88.4711C295.063 88.7552 295.755 88.8698 296.585 88.8149Z" fill="#F2F2F2"/>
<path d="M29.5692 141.116L20.1663 129.474L395.838 104.399L407.48 115.593L29.5692 141.116Z" fill="#161616"/>
<path d="M402.107 12.1608L389.122 0.339844L395.838 104.4L407.48 115.594L402.107 12.1608Z" fill="#0C0C0C"/>
<circle cx="208.678" cy="189.743" r="20.1493" fill="black" stroke="#252525" stroke-width="2.68657"/>
<circle cx="208.678" cy="189.743" r="16.1194" fill="#252525"/>
<path d="M165.366 282.236V277.936L176.374 267.143C177.348 266.197 178.137 265.323 178.739 264.52C179.341 263.717 179.785 262.929 180.072 262.155C180.358 261.352 180.502 260.478 180.502 259.532C180.502 258.672 180.33 257.927 179.986 257.296C179.67 256.637 179.111 256.135 178.309 255.791C177.535 255.447 176.445 255.275 175.041 255.275H166.226V251.104C167.573 250.875 169.064 250.674 170.698 250.502C172.36 250.33 174.166 250.244 176.116 250.244C178.581 250.244 180.516 250.588 181.921 251.276C183.325 251.935 184.329 252.91 184.931 254.2C185.533 255.461 185.834 256.966 185.834 258.715C185.834 260.148 185.633 261.467 185.232 262.671C184.859 263.875 184.271 265.036 183.469 266.154C182.695 267.243 181.706 268.376 180.502 269.551L172.461 277.42H186.866V282.236H165.366ZM199.416 282.408C197.753 282.408 196.306 282.121 195.073 281.548C193.84 280.946 192.894 280.057 192.235 278.882C191.576 277.678 191.246 276.187 191.246 274.41V258.457C191.246 256.651 191.576 255.146 192.235 253.942C192.923 252.709 193.883 251.792 195.116 251.19C196.349 250.559 197.796 250.244 199.459 250.244H205.952C207.729 250.244 209.191 250.574 210.338 251.233C211.513 251.892 212.388 252.838 212.961 254.071C213.534 255.275 213.821 256.737 213.821 258.457V274.41C213.821 277.047 213.119 279.04 211.714 280.387C210.309 281.734 208.374 282.408 205.909 282.408H199.416ZM200.663 277.592H204.533C205.909 277.592 206.912 277.262 207.543 276.603C208.202 275.915 208.532 274.926 208.532 273.636V258.973C208.532 257.568 208.188 256.565 207.5 255.963C206.841 255.332 205.923 255.017 204.748 255.017H200.491C199.258 255.017 198.298 255.361 197.61 256.049C196.922 256.708 196.578 257.683 196.578 258.973V273.636C196.578 274.983 196.936 275.987 197.653 276.646C198.37 277.277 199.373 277.592 200.663 277.592ZM218.654 282.236V277.936L229.662 267.143C230.637 266.197 231.425 265.323 232.027 264.52C232.629 263.717 233.073 262.929 233.36 262.155C233.647 261.352 233.79 260.478 233.79 259.532C233.79 258.672 233.618 257.927 233.274 257.296C232.959 256.637 232.4 256.135 231.597 255.791C230.823 255.447 229.734 255.275 228.329 255.275H219.514V251.104C220.861 250.875 222.352 250.674 223.986 250.502C225.649 250.33 227.455 250.244 229.404 250.244C231.869 250.244 233.804 250.588 235.209 251.276C236.614 251.935 237.617 252.91 238.219 254.2C238.821 255.461 239.122 256.966 239.122 258.715C239.122 260.148 238.921 261.467 238.52 262.671C238.147 263.875 237.56 265.036 236.757 266.154C235.983 267.243 234.994 268.376 233.79 269.551L225.749 277.42H240.154V282.236H218.654ZM249.35 282.236V255.318L243.373 256.393V252.996L249.909 250.201H254.682V282.236H249.35Z" fill="white"/>
<path d="M53.6576 332.102C52.7776 332.102 52.011 332.002 51.3576 331.802C50.7043 331.602 50.1643 331.242 49.7376 330.722C49.311 330.189 48.991 329.429 48.7776 328.442C48.5776 327.456 48.4776 326.169 48.4776 324.582C48.4776 323.089 48.5843 321.862 48.7976 320.902C49.011 319.929 49.331 319.169 49.7576 318.622C50.1976 318.076 50.751 317.696 51.4176 317.482C52.0843 317.256 52.871 317.142 53.7776 317.142C54.191 317.142 54.651 317.169 55.1576 317.222C55.6643 317.276 56.1643 317.342 56.6576 317.422C57.151 317.489 57.5976 317.576 57.9976 317.682V318.862C57.771 318.822 57.451 318.782 57.0376 318.742C56.6243 318.702 56.151 318.669 55.6176 318.642C55.0976 318.602 54.5643 318.582 54.0176 318.582C53.311 318.582 52.7043 318.662 52.1976 318.822C51.691 318.982 51.2776 319.282 50.9576 319.722C50.651 320.149 50.4243 320.756 50.2776 321.542C50.131 322.329 50.0576 323.349 50.0576 324.602C50.0576 325.869 50.1243 326.909 50.2576 327.722C50.4043 328.522 50.631 329.136 50.9376 329.562C51.2443 329.989 51.6443 330.282 52.1376 330.442C52.631 330.602 53.2443 330.682 53.9776 330.682C54.9776 330.682 55.7976 330.656 56.4376 330.602C57.0776 330.549 57.5976 330.489 57.9976 330.422V331.622C57.5976 331.716 57.151 331.802 56.6576 331.882C56.1776 331.949 55.6776 332.002 55.1576 332.042C54.651 332.082 54.151 332.102 53.6576 332.102ZM64.8834 332.102C64.1101 332.102 63.4301 332.022 62.8434 331.862C62.2701 331.702 61.7901 331.422 61.4034 331.022C61.0168 330.622 60.7301 330.069 60.5434 329.362C60.3568 328.642 60.2634 327.729 60.2634 326.622C60.2634 325.502 60.3568 324.589 60.5434 323.882C60.7301 323.162 61.0168 322.609 61.4034 322.222C61.7901 321.822 62.2701 321.549 62.8434 321.402C63.4301 321.242 64.1101 321.162 64.8834 321.162C65.6568 321.162 66.3301 321.242 66.9034 321.402C67.4901 321.562 67.9768 321.842 68.3634 322.242C68.7501 322.629 69.0368 323.182 69.2234 323.902C69.4234 324.609 69.5234 325.516 69.5234 326.622C69.5234 327.742 69.4234 328.662 69.2234 329.382C69.0368 330.089 68.7501 330.642 68.3634 331.042C67.9901 331.429 67.5101 331.702 66.9234 331.862C66.3368 332.022 65.6568 332.102 64.8834 332.102ZM64.8834 330.802C65.3768 330.802 65.8101 330.756 66.1834 330.662C66.5701 330.569 66.8901 330.382 67.1434 330.102C67.3968 329.822 67.5901 329.402 67.7234 328.842C67.8568 328.282 67.9234 327.542 67.9234 326.622C67.9234 325.689 67.8568 324.949 67.7234 324.402C67.5901 323.856 67.3968 323.442 67.1434 323.162C66.8901 322.882 66.5701 322.696 66.1834 322.602C65.8101 322.509 65.3768 322.462 64.8834 322.462C64.3768 322.462 63.9368 322.509 63.5634 322.602C63.1901 322.696 62.8768 322.882 62.6234 323.162C62.3701 323.442 62.1768 323.856 62.0434 324.402C61.9101 324.949 61.8434 325.689 61.8434 326.622C61.8434 327.542 61.9101 328.282 62.0434 328.842C62.1768 329.402 62.3701 329.822 62.6234 330.102C62.8768 330.382 63.1901 330.569 63.5634 330.662C63.9368 330.756 64.3768 330.802 64.8834 330.802ZM72.5864 331.982V321.302H73.7864L74.1664 323.162C74.6464 322.589 75.1797 322.116 75.7664 321.742C76.3664 321.369 77.0531 321.182 77.8264 321.182C78.0131 321.182 78.1864 321.189 78.3464 321.202C78.5197 321.216 78.6797 321.242 78.8264 321.282V322.902C78.6531 322.876 78.4664 322.856 78.2664 322.842C78.0664 322.816 77.8664 322.802 77.6664 322.802C77.1731 322.802 76.7331 322.862 76.3464 322.982C75.9597 323.102 75.5931 323.282 75.2464 323.522C74.8997 323.762 74.5397 324.056 74.1664 324.402V331.982H72.5864ZM85.3086 332.102C84.1886 332.102 83.3019 331.936 82.6486 331.602C82.0086 331.269 81.5486 330.702 81.2686 329.902C80.9886 329.102 80.8486 328.009 80.8486 326.622C80.8486 325.209 80.9886 324.109 81.2686 323.322C81.5619 322.522 82.0352 321.962 82.6886 321.642C83.3419 321.322 84.2219 321.162 85.3286 321.162C86.2752 321.162 87.0419 321.269 87.6286 321.482C88.2286 321.696 88.6686 322.062 88.9486 322.582C89.2419 323.089 89.3886 323.796 89.3886 324.702C89.3886 325.329 89.2619 325.836 89.0086 326.222C88.7686 326.596 88.4152 326.869 87.9486 327.042C87.4952 327.202 86.9552 327.282 86.3286 327.282H82.4286C82.4419 328.149 82.5352 328.849 82.7086 329.382C82.8819 329.902 83.1952 330.282 83.6486 330.522C84.1152 330.749 84.7952 330.862 85.6886 330.862H89.1286V331.822C88.5152 331.902 87.9152 331.969 87.3286 332.022C86.7419 332.076 86.0686 332.102 85.3086 332.102ZM82.4086 326.242H86.2086C86.8086 326.242 87.2486 326.136 87.5286 325.922C87.8219 325.696 87.9686 325.296 87.9686 324.722C87.9686 324.109 87.8752 323.636 87.6886 323.302C87.5152 322.956 87.2352 322.716 86.8486 322.582C86.4752 322.436 85.9686 322.362 85.3286 322.362C84.5819 322.362 83.9952 322.476 83.5686 322.702C83.1419 322.916 82.8419 323.302 82.6686 323.862C82.4952 324.422 82.4086 325.216 82.4086 326.242ZM101.58 331.982V318.702H97.0395V317.262H107.72V318.702H103.18V331.982H101.58ZM113.052 332.102C111.932 332.102 111.045 331.936 110.392 331.602C109.752 331.269 109.292 330.702 109.012 329.902C108.732 329.102 108.592 328.009 108.592 326.622C108.592 325.209 108.732 324.109 109.012 323.322C109.305 322.522 109.778 321.962 110.432 321.642C111.085 321.322 111.965 321.162 113.072 321.162C114.018 321.162 114.785 321.269 115.372 321.482C115.972 321.696 116.412 322.062 116.692 322.582C116.985 323.089 117.132 323.796 117.132 324.702C117.132 325.329 117.005 325.836 116.752 326.222C116.512 326.596 116.158 326.869 115.692 327.042C115.238 327.202 114.698 327.282 114.072 327.282H110.172C110.185 328.149 110.278 328.849 110.452 329.382C110.625 329.902 110.938 330.282 111.392 330.522C111.858 330.749 112.538 330.862 113.432 330.862H116.872V331.822C116.258 331.902 115.658 331.969 115.072 332.022C114.485 332.076 113.812 332.102 113.052 332.102ZM110.152 326.242H113.952C114.552 326.242 114.992 326.136 115.272 325.922C115.565 325.696 115.712 325.296 115.712 324.722C115.712 324.109 115.618 323.636 115.432 323.302C115.258 322.956 114.978 322.716 114.592 322.582C114.218 322.436 113.712 322.362 113.072 322.362C112.325 322.362 111.738 322.476 111.312 322.702C110.885 322.916 110.585 323.302 110.412 323.862C110.238 324.422 110.152 325.216 110.152 326.242ZM122.272 332.102C121.485 332.102 120.839 331.869 120.332 331.402C119.825 330.936 119.572 330.276 119.572 329.422V328.662C119.572 327.822 119.845 327.142 120.392 326.622C120.952 326.102 121.792 325.842 122.912 325.842H126.532V324.522C126.532 324.082 126.452 323.709 126.292 323.402C126.145 323.082 125.872 322.836 125.472 322.662C125.085 322.489 124.519 322.402 123.772 322.402H120.452V321.462C120.919 321.382 121.459 321.309 122.072 321.242C122.699 321.176 123.432 321.142 124.272 321.142C125.139 321.129 125.859 321.236 126.432 321.462C127.005 321.689 127.425 322.049 127.692 322.542C127.972 323.022 128.112 323.656 128.112 324.442V331.982H126.892L126.592 330.762C126.539 330.816 126.372 330.909 126.092 331.042C125.825 331.176 125.479 331.329 125.052 331.502C124.639 331.662 124.185 331.802 123.692 331.922C123.212 332.042 122.739 332.102 122.272 332.102ZM122.932 330.922C123.172 330.936 123.445 330.909 123.752 330.842C124.059 330.776 124.372 330.702 124.692 330.622C125.012 330.529 125.305 330.436 125.572 330.342C125.852 330.249 126.079 330.169 126.252 330.102C126.425 330.036 126.519 330.002 126.532 330.002V326.642L123.272 326.782C122.512 326.809 121.965 326.996 121.632 327.342C121.312 327.689 121.152 328.136 121.152 328.682V329.162C121.152 329.589 121.239 329.936 121.412 330.202C121.599 330.456 121.825 330.636 122.092 330.742C122.372 330.849 122.652 330.909 122.932 330.922ZM131.49 331.982V321.302H132.73L133.07 322.482C133.604 322.109 134.197 321.789 134.85 321.522C135.517 321.256 136.257 321.122 137.07 321.122C137.737 321.122 138.304 321.276 138.77 321.582C139.25 321.876 139.61 322.249 139.85 322.702C140.184 322.462 140.584 322.222 141.05 321.982C141.53 321.742 142.037 321.542 142.57 321.382C143.117 321.209 143.644 321.122 144.15 321.122C144.924 321.122 145.557 321.289 146.05 321.622C146.544 321.942 146.904 322.382 147.13 322.942C147.37 323.489 147.49 324.102 147.49 324.782V331.982H145.91V324.902C145.91 324.449 145.817 324.049 145.63 323.702C145.457 323.342 145.204 323.062 144.87 322.862C144.537 322.662 144.13 322.562 143.65 322.562C143.05 322.562 142.437 322.676 141.81 322.902C141.184 323.129 140.604 323.402 140.07 323.722C140.137 323.922 140.184 324.122 140.21 324.322C140.25 324.509 140.27 324.709 140.27 324.922V331.982H138.69V324.902C138.69 324.449 138.597 324.049 138.41 323.702C138.237 323.342 137.984 323.062 137.65 322.862C137.33 322.662 136.93 322.562 136.45 322.562C136.01 322.562 135.597 322.609 135.21 322.702C134.837 322.782 134.477 322.902 134.13 323.062C133.797 323.209 133.444 323.389 133.07 323.602V331.982H131.49ZM156.646 331.982V321.302H157.886L158.226 322.482C158.759 322.109 159.352 321.789 160.006 321.522C160.672 321.256 161.412 321.122 162.226 321.122C162.892 321.122 163.459 321.276 163.926 321.582C164.406 321.876 164.766 322.249 165.006 322.702C165.339 322.462 165.739 322.222 166.206 321.982C166.686 321.742 167.192 321.542 167.726 321.382C168.272 321.209 168.799 321.122 169.306 321.122C170.079 321.122 170.712 321.289 171.206 321.622C171.699 321.942 172.059 322.382 172.286 322.942C172.526 323.489 172.646 324.102 172.646 324.782V331.982H171.066V324.902C171.066 324.449 170.972 324.049 170.786 323.702C170.612 323.342 170.359 323.062 170.026 322.862C169.692 322.662 169.286 322.562 168.806 322.562C168.206 322.562 167.592 322.676 166.966 322.902C166.339 323.129 165.759 323.402 165.226 323.722C165.292 323.922 165.339 324.122 165.366 324.322C165.406 324.509 165.426 324.709 165.426 324.922V331.982H163.846V324.902C163.846 324.449 163.752 324.049 163.566 323.702C163.392 323.342 163.139 323.062 162.806 322.862C162.486 322.662 162.086 322.562 161.606 322.562C161.166 322.562 160.752 322.609 160.366 322.702C159.992 322.782 159.632 322.902 159.286 323.062C158.952 323.209 158.599 323.389 158.226 323.602V331.982H156.646ZM180.091 332.102C178.971 332.102 178.084 331.936 177.431 331.602C176.791 331.269 176.331 330.702 176.051 329.902C175.771 329.102 175.631 328.009 175.631 326.622C175.631 325.209 175.771 324.109 176.051 323.322C176.344 322.522 176.817 321.962 177.471 321.642C178.124 321.322 179.004 321.162 180.111 321.162C181.057 321.162 181.824 321.269 182.411 321.482C183.011 321.696 183.451 322.062 183.731 322.582C184.024 323.089 184.171 323.796 184.171 324.702C184.171 325.329 184.044 325.836 183.791 326.222C183.551 326.596 183.197 326.869 182.731 327.042C182.277 327.202 181.737 327.282 181.111 327.282H177.211C177.224 328.149 177.317 328.849 177.491 329.382C177.664 329.902 177.977 330.282 178.431 330.522C178.897 330.749 179.577 330.862 180.471 330.862H183.911V331.822C183.297 331.902 182.697 331.969 182.111 332.022C181.524 332.076 180.851 332.102 180.091 332.102ZM177.191 326.242H180.991C181.591 326.242 182.031 326.136 182.311 325.922C182.604 325.696 182.751 325.296 182.751 324.722C182.751 324.109 182.657 323.636 182.471 323.302C182.297 322.956 182.017 322.716 181.631 322.582C181.257 322.436 180.751 322.362 180.111 322.362C179.364 322.362 178.777 322.476 178.351 322.702C177.924 322.916 177.624 323.302 177.451 323.862C177.277 324.422 177.191 325.216 177.191 326.242ZM187.231 331.982V321.302H188.471L188.811 322.482C189.344 322.109 189.938 321.789 190.591 321.522C191.258 321.256 191.998 321.122 192.811 321.122C193.478 321.122 194.044 321.276 194.511 321.582C194.991 321.876 195.351 322.249 195.591 322.702C195.924 322.462 196.324 322.222 196.791 321.982C197.271 321.742 197.778 321.542 198.311 321.382C198.858 321.209 199.384 321.122 199.891 321.122C200.664 321.122 201.298 321.289 201.791 321.622C202.284 321.942 202.644 322.382 202.871 322.942C203.111 323.489 203.231 324.102 203.231 324.782V331.982H201.651V324.902C201.651 324.449 201.558 324.049 201.371 323.702C201.198 323.342 200.944 323.062 200.611 322.862C200.278 322.662 199.871 322.562 199.391 322.562C198.791 322.562 198.178 322.676 197.551 322.902C196.924 323.129 196.344 323.402 195.811 323.722C195.878 323.922 195.924 324.122 195.951 324.322C195.991 324.509 196.011 324.709 196.011 324.922V331.982H194.431V324.902C194.431 324.449 194.338 324.049 194.151 323.702C193.978 323.342 193.724 323.062 193.391 322.862C193.071 322.662 192.671 322.562 192.191 322.562C191.751 322.562 191.338 322.609 190.951 322.702C190.578 322.782 190.218 322.902 189.871 323.062C189.538 323.209 189.184 323.389 188.811 323.602V331.982H187.231ZM211.736 332.102C211.229 332.102 210.756 332.042 210.316 331.922C209.889 331.789 209.496 331.636 209.136 331.462C208.776 331.276 208.456 331.089 208.176 330.902L207.876 331.982H206.596V316.722H208.176V322.282C208.682 321.989 209.256 321.729 209.896 321.502C210.536 321.276 211.129 321.162 211.676 321.162C212.529 321.162 213.236 321.342 213.796 321.702C214.356 322.062 214.776 322.649 215.056 323.462C215.349 324.276 215.496 325.362 215.496 326.722C215.496 327.829 215.369 328.789 215.116 329.602C214.862 330.402 214.456 331.022 213.896 331.462C213.349 331.889 212.629 332.102 211.736 332.102ZM211.236 330.782C211.822 330.782 212.309 330.636 212.696 330.342C213.096 330.036 213.396 329.576 213.596 328.962C213.809 328.349 213.916 327.582 213.916 326.662C213.916 325.489 213.796 324.609 213.556 324.022C213.329 323.422 213.016 323.016 212.616 322.802C212.216 322.589 211.756 322.482 211.236 322.482C210.636 322.482 210.096 322.569 209.616 322.742C209.149 322.902 208.669 323.116 208.176 323.382V329.922C208.589 330.122 209.042 330.316 209.536 330.502C210.042 330.689 210.609 330.782 211.236 330.782ZM222.638 332.102C221.518 332.102 220.632 331.936 219.978 331.602C219.338 331.269 218.878 330.702 218.598 329.902C218.318 329.102 218.178 328.009 218.178 326.622C218.178 325.209 218.318 324.109 218.598 323.322C218.892 322.522 219.365 321.962 220.018 321.642C220.672 321.322 221.552 321.162 222.658 321.162C223.605 321.162 224.372 321.269 224.958 321.482C225.558 321.696 225.998 322.062 226.278 322.582C226.572 323.089 226.718 323.796 226.718 324.702C226.718 325.329 226.592 325.836 226.338 326.222C226.098 326.596 225.745 326.869 225.278 327.042C224.825 327.202 224.285 327.282 223.658 327.282H219.758C219.772 328.149 219.865 328.849 220.038 329.382C220.212 329.902 220.525 330.282 220.978 330.522C221.445 330.749 222.125 330.862 223.018 330.862H226.458V331.822C225.845 331.902 225.245 331.969 224.658 332.022C224.072 332.076 223.398 332.102 222.638 332.102ZM219.738 326.242H223.538C224.138 326.242 224.578 326.136 224.858 325.922C225.152 325.696 225.298 325.296 225.298 324.722C225.298 324.109 225.205 323.636 225.018 323.302C224.845 322.956 224.565 322.716 224.178 322.582C223.805 322.436 223.298 322.362 222.658 322.362C221.912 322.362 221.325 322.476 220.898 322.702C220.472 322.916 220.172 323.302 219.998 323.862C219.825 324.422 219.738 325.216 219.738 326.242ZM229.779 331.982V321.302H230.979L231.359 323.162C231.839 322.589 232.372 322.116 232.959 321.742C233.559 321.369 234.245 321.182 235.019 321.182C235.205 321.182 235.379 321.189 235.539 321.202C235.712 321.216 235.872 321.242 236.019 321.282V322.902C235.845 322.876 235.659 322.856 235.459 322.842C235.259 322.816 235.059 322.802 234.859 322.802C234.365 322.802 233.925 322.862 233.539 322.982C233.152 323.102 232.785 323.282 232.439 323.522C232.092 323.762 231.732 324.056 231.359 324.402V331.982H229.779ZM248.451 332.102C247.678 332.102 246.998 332.022 246.411 331.862C245.838 331.702 245.358 331.422 244.971 331.022C244.585 330.622 244.298 330.069 244.111 329.362C243.925 328.642 243.831 327.729 243.831 326.622C243.831 325.502 243.925 324.589 244.111 323.882C244.298 323.162 244.585 322.609 244.971 322.222C245.358 321.822 245.838 321.549 246.411 321.402C246.998 321.242 247.678 321.162 248.451 321.162C249.225 321.162 249.898 321.242 250.471 321.402C251.058 321.562 251.545 321.842 251.931 322.242C252.318 322.629 252.605 323.182 252.791 323.902C252.991 324.609 253.091 325.516 253.091 326.622C253.091 327.742 252.991 328.662 252.791 329.382C252.605 330.089 252.318 330.642 251.931 331.042C251.558 331.429 251.078 331.702 250.491 331.862C249.905 332.022 249.225 332.102 248.451 332.102ZM248.451 330.802C248.945 330.802 249.378 330.756 249.751 330.662C250.138 330.569 250.458 330.382 250.711 330.102C250.965 329.822 251.158 329.402 251.291 328.842C251.425 328.282 251.491 327.542 251.491 326.622C251.491 325.689 251.425 324.949 251.291 324.402C251.158 323.856 250.965 323.442 250.711 323.162C250.458 322.882 250.138 322.696 249.751 322.602C249.378 322.509 248.945 322.462 248.451 322.462C247.945 322.462 247.505 322.509 247.131 322.602C246.758 322.696 246.445 322.882 246.191 323.162C245.938 323.442 245.745 323.856 245.611 324.402C245.478 324.949 245.411 325.689 245.411 326.622C245.411 327.542 245.478 328.282 245.611 328.842C245.745 329.402 245.938 329.822 246.191 330.102C246.445 330.382 246.758 330.569 247.131 330.662C247.505 330.756 247.945 330.802 248.451 330.802ZM256.734 331.982V322.602H255.094V321.582L256.734 321.302V320.082C256.734 319.322 256.828 318.689 257.014 318.182C257.201 317.662 257.514 317.269 257.954 317.002C258.394 316.736 259.008 316.602 259.794 316.602C260.261 316.602 260.654 316.629 260.974 316.682C261.308 316.722 261.601 316.762 261.854 316.802V317.922H260.074C259.594 317.922 259.228 318.002 258.974 318.162C258.721 318.309 258.548 318.542 258.454 318.862C258.361 319.169 258.314 319.549 258.314 320.002V321.302H261.634V322.602H258.314V331.982H256.734ZM269.728 331.982V317.262H275.548C276.442 317.262 277.195 317.429 277.808 317.762C278.422 318.082 278.915 318.556 279.288 319.182C279.675 319.809 279.955 320.582 280.128 321.502C280.302 322.409 280.388 323.449 280.388 324.622C280.388 326.169 280.208 327.489 279.848 328.582C279.488 329.676 278.948 330.516 278.228 331.102C277.508 331.689 276.615 331.982 275.548 331.982H269.728ZM271.328 330.562H275.428C276.215 330.562 276.855 330.322 277.348 329.842C277.842 329.349 278.208 328.662 278.448 327.782C278.688 326.889 278.808 325.836 278.808 324.622C278.808 323.529 278.742 322.609 278.608 321.862C278.475 321.102 278.268 320.489 277.988 320.022C277.722 319.556 277.375 319.222 276.948 319.022C276.522 318.809 276.015 318.702 275.428 318.702H271.328V330.562ZM287.372 332.102C286.252 332.102 285.365 331.936 284.712 331.602C284.072 331.269 283.612 330.702 283.332 329.902C283.052 329.102 282.912 328.009 282.912 326.622C282.912 325.209 283.052 324.109 283.332 323.322C283.625 322.522 284.099 321.962 284.752 321.642C285.405 321.322 286.285 321.162 287.392 321.162C288.339 321.162 289.105 321.269 289.692 321.482C290.292 321.696 290.732 322.062 291.012 322.582C291.305 323.089 291.452 323.796 291.452 324.702C291.452 325.329 291.325 325.836 291.072 326.222C290.832 326.596 290.479 326.869 290.012 327.042C289.559 327.202 289.019 327.282 288.392 327.282H284.492C284.505 328.149 284.599 328.849 284.772 329.382C284.945 329.902 285.259 330.282 285.712 330.522C286.179 330.749 286.859 330.862 287.752 330.862H291.192V331.822C290.579 331.902 289.979 331.969 289.392 332.022C288.805 332.076 288.132 332.102 287.372 332.102ZM284.472 326.242H288.272C288.872 326.242 289.312 326.136 289.592 325.922C289.885 325.696 290.032 325.296 290.032 324.722C290.032 324.109 289.939 323.636 289.752 323.302C289.579 322.956 289.299 322.716 288.912 322.582C288.539 322.436 288.032 322.362 287.392 322.362C286.645 322.362 286.059 322.476 285.632 322.702C285.205 322.916 284.905 323.302 284.732 323.862C284.559 324.422 284.472 325.216 284.472 326.242ZM298.192 332.102C297.926 332.102 297.599 332.096 297.212 332.082C296.826 332.069 296.419 332.049 295.992 332.022C295.579 331.996 295.199 331.969 294.852 331.942C294.519 331.902 294.259 331.862 294.072 331.822V330.862H298.452C298.892 330.862 299.272 330.829 299.592 330.762C299.912 330.696 300.159 330.549 300.332 330.322C300.519 330.096 300.612 329.756 300.612 329.302V328.822C300.612 328.356 300.459 327.996 300.152 327.742C299.846 327.476 299.352 327.342 298.672 327.342H297.172C296.546 327.342 295.986 327.262 295.492 327.102C295.012 326.942 294.639 326.669 294.372 326.282C294.106 325.896 293.972 325.362 293.972 324.682V324.122C293.972 323.456 294.099 322.909 294.352 322.482C294.619 322.056 295.026 321.736 295.572 321.522C296.132 321.309 296.852 321.202 297.732 321.202C298.106 321.202 298.532 321.216 299.012 321.242C299.506 321.269 299.986 321.309 300.452 321.362C300.919 321.402 301.299 321.449 301.592 321.502V322.462H297.472C296.792 322.462 296.266 322.576 295.892 322.802C295.532 323.029 295.352 323.469 295.352 324.122V324.562C295.352 324.976 295.439 325.289 295.612 325.502C295.786 325.702 296.026 325.836 296.332 325.902C296.652 325.969 297.019 326.002 297.432 326.002H298.952C299.926 326.002 300.679 326.229 301.212 326.682C301.746 327.136 302.012 327.789 302.012 328.642V329.382C302.012 330.102 301.846 330.662 301.512 331.062C301.192 331.449 300.746 331.722 300.172 331.882C299.612 332.029 298.952 332.102 298.192 332.102ZM305.152 319.402C304.939 319.402 304.832 319.296 304.832 319.082V317.522C304.832 317.309 304.939 317.202 305.152 317.202H306.272C306.379 317.202 306.452 317.236 306.492 317.302C306.546 317.356 306.572 317.429 306.572 317.522V319.082C306.572 319.296 306.472 319.402 306.272 319.402H305.152ZM304.912 331.982V321.302H306.492V331.982H304.912ZM312.561 336.882C311.868 336.882 311.254 336.782 310.721 336.582C310.201 336.396 309.788 336.102 309.481 335.702C309.188 335.316 309.041 334.829 309.041 334.242V333.762C309.041 333.149 309.208 332.636 309.541 332.222C309.888 331.809 310.321 331.502 310.841 331.302C311.361 331.089 311.894 330.982 312.441 330.982L312.841 331.622C312.441 331.622 312.068 331.689 311.721 331.822C311.374 331.942 311.088 332.142 310.861 332.422C310.648 332.702 310.541 333.062 310.541 333.502V333.942C310.541 334.582 310.754 335.036 311.181 335.302C311.608 335.582 312.188 335.722 312.921 335.722H315.401C316.201 335.722 316.828 335.569 317.281 335.262C317.748 334.956 317.981 334.476 317.981 333.822V333.422C317.981 333.049 317.908 332.729 317.761 332.462C317.614 332.196 317.368 331.989 317.021 331.842C316.688 331.696 316.214 331.622 315.601 331.622H312.381C311.554 331.622 310.908 331.449 310.441 331.102C309.988 330.742 309.761 330.282 309.761 329.722C309.761 329.189 309.914 328.769 310.221 328.462C310.541 328.156 310.988 327.942 311.561 327.822C311.068 327.622 310.681 327.356 310.401 327.022C310.121 326.676 309.928 326.309 309.821 325.922C309.714 325.522 309.661 325.122 309.661 324.722C309.661 323.896 309.828 323.229 310.161 322.722C310.494 322.216 310.968 321.849 311.581 321.622C312.208 321.396 312.941 321.282 313.781 321.282H319.481V322.182L317.081 322.382C317.254 322.502 317.448 322.662 317.661 322.862C317.874 323.049 318.054 323.322 318.201 323.682C318.361 324.029 318.441 324.509 318.441 325.122C318.441 325.669 318.321 326.189 318.081 326.682C317.854 327.176 317.468 327.582 316.921 327.902C316.374 328.209 315.621 328.362 314.661 328.362H312.961C312.401 328.362 311.954 328.449 311.621 328.622C311.301 328.782 311.141 329.076 311.141 329.502C311.141 329.822 311.261 330.049 311.501 330.182C311.741 330.316 311.994 330.382 312.261 330.382H315.801C316.628 330.382 317.308 330.489 317.841 330.702C318.388 330.916 318.794 331.242 319.061 331.682C319.341 332.109 319.481 332.656 319.481 333.322V333.762C319.481 334.736 319.148 335.496 318.481 336.042C317.828 336.602 316.848 336.882 315.541 336.882H312.561ZM313.301 327.142H314.501C315.181 327.142 315.694 327.042 316.041 326.842C316.401 326.629 316.648 326.356 316.781 326.022C316.914 325.689 316.981 325.329 316.981 324.942C316.981 324.342 316.881 323.869 316.681 323.522C316.494 323.162 316.228 322.909 315.881 322.762C315.534 322.602 315.134 322.522 314.681 322.522H313.541C312.781 322.522 312.181 322.696 311.741 323.042C311.314 323.376 311.101 323.962 311.101 324.802C311.101 325.629 311.294 326.229 311.681 326.602C312.081 326.962 312.621 327.142 313.301 327.142ZM321.865 331.982V321.302H323.105L323.445 322.482C323.951 322.122 324.545 321.809 325.225 321.542C325.905 321.262 326.611 321.122 327.345 321.122C328.131 321.122 328.765 321.289 329.245 321.622C329.725 321.956 330.078 322.396 330.305 322.942C330.531 323.489 330.645 324.082 330.645 324.722V331.982H329.065V324.902C329.065 324.449 328.971 324.049 328.785 323.702C328.611 323.342 328.358 323.062 328.025 322.862C327.705 322.662 327.305 322.562 326.825 322.562C326.385 322.562 325.971 322.609 325.585 322.702C325.211 322.782 324.851 322.902 324.505 323.062C324.171 323.209 323.818 323.389 323.445 323.602V331.982H321.865ZM336.102 332.102C335.316 332.102 334.669 331.869 334.162 331.402C333.656 330.936 333.402 330.276 333.402 329.422V328.662C333.402 327.822 333.676 327.142 334.222 326.622C334.782 326.102 335.622 325.842 336.742 325.842H340.362V324.522C340.362 324.082 340.282 323.709 340.122 323.402C339.976 323.082 339.702 322.836 339.302 322.662C338.916 322.489 338.349 322.402 337.602 322.402H334.282V321.462C334.749 321.382 335.289 321.309 335.902 321.242C336.529 321.176 337.262 321.142 338.102 321.142C338.969 321.129 339.689 321.236 340.262 321.462C340.836 321.689 341.256 322.049 341.522 322.542C341.802 323.022 341.942 323.656 341.942 324.442V331.982H340.722L340.422 330.762C340.369 330.816 340.202 330.909 339.922 331.042C339.656 331.176 339.309 331.329 338.882 331.502C338.469 331.662 338.016 331.802 337.522 331.922C337.042 332.042 336.569 332.102 336.102 332.102ZM336.762 330.922C337.002 330.936 337.276 330.909 337.582 330.842C337.889 330.776 338.202 330.702 338.522 330.622C338.842 330.529 339.136 330.436 339.402 330.342C339.682 330.249 339.909 330.169 340.082 330.102C340.256 330.036 340.349 330.002 340.362 330.002V326.642L337.102 326.782C336.342 326.809 335.796 326.996 335.462 327.342C335.142 327.689 334.982 328.136 334.982 328.682V329.162C334.982 329.589 335.069 329.936 335.242 330.202C335.429 330.456 335.656 330.636 335.922 330.742C336.202 330.849 336.482 330.909 336.762 330.922ZM348.501 332.102C347.474 332.102 346.681 331.836 346.121 331.302C345.574 330.769 345.301 329.942 345.301 328.822V321.302H346.881V328.422C346.881 329.316 347.081 329.922 347.481 330.242C347.894 330.549 348.467 330.702 349.201 330.702C349.827 330.702 350.401 330.616 350.921 330.442C351.441 330.256 351.974 330.002 352.521 329.682V321.302H354.101V331.982H352.861L352.521 330.802C351.974 331.149 351.354 331.456 350.661 331.722C349.981 331.976 349.261 332.102 348.501 332.102ZM361.019 331.982C360.325 331.982 359.752 331.869 359.299 331.642C358.845 331.416 358.512 331.049 358.299 330.542C358.085 330.036 357.985 329.362 357.999 328.522L358.059 322.602H356.359V321.582L358.079 321.302L358.339 318.322H359.559V321.302H362.639V322.602H359.559V328.522C359.559 328.989 359.605 329.362 359.699 329.642C359.805 329.922 359.939 330.136 360.099 330.282C360.272 330.429 360.452 330.536 360.639 330.602C360.825 330.656 361.005 330.689 361.179 330.702L362.479 330.822V331.982H361.019ZM368.902 332.102C368.636 332.102 368.309 332.096 367.922 332.082C367.536 332.069 367.129 332.049 366.702 332.022C366.289 331.996 365.909 331.969 365.562 331.942C365.229 331.902 364.969 331.862 364.782 331.822V330.862H369.162C369.602 330.862 369.982 330.829 370.302 330.762C370.622 330.696 370.869 330.549 371.042 330.322C371.229 330.096 371.322 329.756 371.322 329.302V328.822C371.322 328.356 371.169 327.996 370.862 327.742C370.556 327.476 370.062 327.342 369.382 327.342H367.882C367.256 327.342 366.696 327.262 366.202 327.102C365.722 326.942 365.349 326.669 365.082 326.282C364.816 325.896 364.682 325.362 364.682 324.682V324.122C364.682 323.456 364.809 322.909 365.062 322.482C365.329 322.056 365.736 321.736 366.282 321.522C366.842 321.309 367.562 321.202 368.442 321.202C368.816 321.202 369.242 321.216 369.722 321.242C370.216 321.269 370.696 321.309 371.162 321.362C371.629 321.402 372.009 321.449 372.302 321.502V322.462H368.182C367.502 322.462 366.976 322.576 366.602 322.802C366.242 323.029 366.062 323.469 366.062 324.122V324.562C366.062 324.976 366.149 325.289 366.322 325.502C366.496 325.702 366.736 325.836 367.042 325.902C367.362 325.969 367.729 326.002 368.142 326.002H369.662C370.636 326.002 371.389 326.229 371.922 326.682C372.456 327.136 372.722 327.789 372.722 328.642V329.382C372.722 330.102 372.556 330.662 372.222 331.062C371.902 331.449 371.456 331.722 370.882 331.882C370.322 332.029 369.662 332.102 368.902 332.102ZM81.044 363.982V350.702H76.504V349.262H87.184V350.702H82.644V363.982H81.044ZM89.4321 363.982V348.722H91.0121V354.482C91.5054 354.122 92.0921 353.809 92.7721 353.542C93.4654 353.262 94.1854 353.122 94.9321 353.122C95.6788 353.122 96.2921 353.282 96.7721 353.602C97.2654 353.922 97.6254 354.356 97.8521 354.902C98.0921 355.449 98.2121 356.056 98.2121 356.722V363.982H96.6321V356.882C96.6321 356.429 96.5388 356.029 96.3521 355.682C96.1788 355.336 95.9254 355.062 95.5921 354.862C95.2588 354.662 94.8588 354.562 94.3921 354.562C93.9521 354.562 93.5454 354.609 93.1721 354.702C92.7988 354.782 92.4388 354.902 92.0921 355.062C91.7454 355.209 91.3854 355.389 91.0121 355.602V363.982H89.4321ZM105.67 364.102C104.55 364.102 103.663 363.936 103.01 363.602C102.37 363.269 101.91 362.702 101.63 361.902C101.35 361.102 101.21 360.009 101.21 358.622C101.21 357.209 101.35 356.109 101.63 355.322C101.923 354.522 102.397 353.962 103.05 353.642C103.703 353.322 104.583 353.162 105.69 353.162C106.637 353.162 107.403 353.269 107.99 353.482C108.59 353.696 109.03 354.062 109.31 354.582C109.603 355.089 109.75 355.796 109.75 356.702C109.75 357.329 109.623 357.836 109.37 358.222C109.13 358.596 108.777 358.869 108.31 359.042C107.857 359.202 107.317 359.282 106.69 359.282H102.79C102.803 360.149 102.897 360.849 103.07 361.382C103.243 361.902 103.557 362.282 104.01 362.522C104.477 362.749 105.157 362.862 106.05 362.862H109.49V363.822C108.877 363.902 108.277 363.969 107.69 364.022C107.103 364.076 106.43 364.102 105.67 364.102ZM102.77 358.242H106.57C107.17 358.242 107.61 358.136 107.89 357.922C108.183 357.696 108.33 357.296 108.33 356.722C108.33 356.109 108.237 355.636 108.05 355.302C107.877 354.956 107.597 354.716 107.21 354.582C106.837 354.436 106.33 354.362 105.69 354.362C104.943 354.362 104.357 354.476 103.93 354.702C103.503 354.916 103.203 355.302 103.03 355.862C102.857 356.422 102.77 357.216 102.77 358.242ZM118.621 363.982V349.262H124.441C125.334 349.262 126.088 349.429 126.701 349.762C127.314 350.082 127.808 350.556 128.181 351.182C128.568 351.809 128.848 352.582 129.021 353.502C129.194 354.409 129.281 355.449 129.281 356.622C129.281 358.169 129.101 359.489 128.741 360.582C128.381 361.676 127.841 362.516 127.121 363.102C126.401 363.689 125.508 363.982 124.441 363.982H118.621ZM120.221 362.562H124.321C125.108 362.562 125.748 362.322 126.241 361.842C126.734 361.349 127.101 360.662 127.341 359.782C127.581 358.889 127.701 357.836 127.701 356.622C127.701 355.529 127.634 354.609 127.501 353.862C127.368 353.102 127.161 352.489 126.881 352.022C126.614 351.556 126.268 351.222 125.841 351.022C125.414 350.809 124.908 350.702 124.321 350.702H120.221V362.562ZM136.264 364.102C135.144 364.102 134.258 363.936 133.604 363.602C132.964 363.269 132.504 362.702 132.224 361.902C131.944 361.102 131.804 360.009 131.804 358.622C131.804 357.209 131.944 356.109 132.224 355.322C132.518 354.522 132.991 353.962 133.644 353.642C134.298 353.322 135.178 353.162 136.284 353.162C137.231 353.162 137.998 353.269 138.584 353.482C139.184 353.696 139.624 354.062 139.904 354.582C140.198 355.089 140.344 355.796 140.344 356.702C140.344 357.329 140.218 357.836 139.964 358.222C139.724 358.596 139.371 358.869 138.904 359.042C138.451 359.202 137.911 359.282 137.284 359.282H133.384C133.398 360.149 133.491 360.849 133.664 361.382C133.838 361.902 134.151 362.282 134.604 362.522C135.071 362.749 135.751 362.862 136.644 362.862H140.084V363.822C139.471 363.902 138.871 363.969 138.284 364.022C137.698 364.076 137.024 364.102 136.264 364.102ZM133.364 358.242H137.164C137.764 358.242 138.204 358.136 138.484 357.922C138.778 357.696 138.924 357.296 138.924 356.722C138.924 356.109 138.831 355.636 138.644 355.302C138.471 354.956 138.191 354.716 137.804 354.582C137.431 354.436 136.924 354.362 136.284 354.362C135.538 354.362 134.951 354.476 134.524 354.702C134.098 354.916 133.798 355.302 133.624 355.862C133.451 356.422 133.364 357.216 133.364 358.242ZM147.085 364.102C146.818 364.102 146.491 364.096 146.105 364.082C145.718 364.069 145.311 364.049 144.885 364.022C144.471 363.996 144.091 363.969 143.745 363.942C143.411 363.902 143.151 363.862 142.965 363.822V362.862H147.345C147.785 362.862 148.165 362.829 148.485 362.762C148.805 362.696 149.051 362.549 149.225 362.322C149.411 362.096 149.505 361.756 149.505 361.302V360.822C149.505 360.356 149.351 359.996 149.045 359.742C148.738 359.476 148.245 359.342 147.565 359.342H146.065C145.438 359.342 144.878 359.262 144.385 359.102C143.905 358.942 143.531 358.669 143.265 358.282C142.998 357.896 142.865 357.362 142.865 356.682V356.122C142.865 355.456 142.991 354.909 143.245 354.482C143.511 354.056 143.918 353.736 144.465 353.522C145.025 353.309 145.745 353.202 146.625 353.202C146.998 353.202 147.425 353.216 147.905 353.242C148.398 353.269 148.878 353.309 149.345 353.362C149.811 353.402 150.191 353.449 150.485 353.502V354.462H146.365C145.685 354.462 145.158 354.576 144.785 354.802C144.425 355.029 144.245 355.469 144.245 356.122V356.562C144.245 356.976 144.331 357.289 144.505 357.502C144.678 357.702 144.918 357.836 145.225 357.902C145.545 357.969 145.911 358.002 146.325 358.002H147.845C148.818 358.002 149.571 358.229 150.105 358.682C150.638 359.136 150.905 359.789 150.905 360.642V361.382C150.905 362.102 150.738 362.662 150.405 363.062C150.085 363.449 149.638 363.722 149.065 363.882C148.505 364.029 147.845 364.102 147.085 364.102ZM154.045 351.402C153.831 351.402 153.725 351.296 153.725 351.082V349.522C153.725 349.309 153.831 349.202 154.045 349.202H155.165C155.271 349.202 155.345 349.236 155.385 349.302C155.438 349.356 155.465 349.429 155.465 349.522V351.082C155.465 351.296 155.365 351.402 155.165 351.402H154.045ZM153.805 363.982V353.302H155.385V363.982H153.805ZM161.454 368.882C160.76 368.882 160.147 368.782 159.614 368.582C159.094 368.396 158.68 368.102 158.374 367.702C158.08 367.316 157.934 366.829 157.934 366.242V365.762C157.934 365.149 158.1 364.636 158.434 364.222C158.78 363.809 159.214 363.502 159.734 363.302C160.254 363.089 160.787 362.982 161.334 362.982L161.734 363.622C161.334 363.622 160.96 363.689 160.614 363.822C160.267 363.942 159.98 364.142 159.754 364.422C159.54 364.702 159.434 365.062 159.434 365.502V365.942C159.434 366.582 159.647 367.036 160.074 367.302C160.5 367.582 161.08 367.722 161.814 367.722H164.294C165.094 367.722 165.72 367.569 166.174 367.262C166.64 366.956 166.874 366.476 166.874 365.822V365.422C166.874 365.049 166.8 364.729 166.654 364.462C166.507 364.196 166.26 363.989 165.914 363.842C165.58 363.696 165.107 363.622 164.494 363.622H161.274C160.447 363.622 159.8 363.449 159.334 363.102C158.88 362.742 158.654 362.282 158.654 361.722C158.654 361.189 158.807 360.769 159.114 360.462C159.434 360.156 159.88 359.942 160.454 359.822C159.96 359.622 159.574 359.356 159.294 359.022C159.014 358.676 158.82 358.309 158.714 357.922C158.607 357.522 158.554 357.122 158.554 356.722C158.554 355.896 158.72 355.229 159.054 354.722C159.387 354.216 159.86 353.849 160.474 353.622C161.1 353.396 161.834 353.282 162.674 353.282H168.374V354.182L165.974 354.382C166.147 354.502 166.34 354.662 166.554 354.862C166.767 355.049 166.947 355.322 167.094 355.682C167.254 356.029 167.334 356.509 167.334 357.122C167.334 357.669 167.214 358.189 166.974 358.682C166.747 359.176 166.36 359.582 165.814 359.902C165.267 360.209 164.514 360.362 163.554 360.362H161.854C161.294 360.362 160.847 360.449 160.514 360.622C160.194 360.782 160.034 361.076 160.034 361.502C160.034 361.822 160.154 362.049 160.394 362.182C160.634 362.316 160.887 362.382 161.154 362.382H164.694C165.52 362.382 166.2 362.489 166.734 362.702C167.28 362.916 167.687 363.242 167.954 363.682C168.234 364.109 168.374 364.656 168.374 365.322V365.762C168.374 366.736 168.04 367.496 167.374 368.042C166.72 368.602 165.74 368.882 164.434 368.882H161.454ZM162.194 359.142H163.394C164.074 359.142 164.587 359.042 164.934 358.842C165.294 358.629 165.54 358.356 165.674 358.022C165.807 357.689 165.874 357.329 165.874 356.942C165.874 356.342 165.774 355.869 165.574 355.522C165.387 355.162 165.12 354.909 164.774 354.762C164.427 354.602 164.027 354.522 163.574 354.522H162.434C161.674 354.522 161.074 354.696 160.634 355.042C160.207 355.376 159.994 355.962 159.994 356.802C159.994 357.629 160.187 358.229 160.574 358.602C160.974 358.962 161.514 359.142 162.194 359.142ZM170.757 363.982V353.302H171.997L172.337 354.482C172.844 354.122 173.437 353.809 174.117 353.542C174.797 353.262 175.504 353.122 176.237 353.122C177.024 353.122 177.657 353.289 178.137 353.622C178.617 353.956 178.97 354.396 179.197 354.942C179.424 355.489 179.537 356.082 179.537 356.722V363.982H177.957V356.902C177.957 356.449 177.864 356.049 177.677 355.702C177.504 355.342 177.25 355.062 176.917 354.862C176.597 354.662 176.197 354.562 175.717 354.562C175.277 354.562 174.864 354.609 174.477 354.702C174.104 354.782 173.744 354.902 173.397 355.062C173.064 355.209 172.71 355.389 172.337 355.602V363.982H170.757ZM193.546 364.102C192.666 364.102 191.899 364.002 191.246 363.802C190.592 363.602 190.052 363.242 189.626 362.722C189.199 362.189 188.879 361.429 188.666 360.442C188.466 359.456 188.366 358.169 188.366 356.582C188.366 355.089 188.472 353.862 188.686 352.902C188.899 351.929 189.219 351.169 189.646 350.622C190.086 350.076 190.639 349.696 191.306 349.482C191.972 349.256 192.759 349.142 193.666 349.142C194.079 349.142 194.539 349.169 195.046 349.222C195.552 349.276 196.052 349.342 196.546 349.422C197.039 349.489 197.486 349.576 197.886 349.682V350.862C197.659 350.822 197.339 350.782 196.926 350.742C196.512 350.702 196.039 350.669 195.506 350.642C194.986 350.602 194.452 350.582 193.906 350.582C193.199 350.582 192.592 350.662 192.086 350.822C191.579 350.982 191.166 351.282 190.846 351.722C190.539 352.149 190.312 352.756 190.166 353.542C190.019 354.329 189.946 355.349 189.946 356.602C189.946 357.869 190.012 358.909 190.146 359.722C190.292 360.522 190.519 361.136 190.826 361.562C191.132 361.989 191.532 362.282 192.026 362.442C192.519 362.602 193.132 362.682 193.866 362.682C194.866 362.682 195.686 362.656 196.326 362.602C196.966 362.549 197.486 362.489 197.886 362.422V363.622C197.486 363.716 197.039 363.802 196.546 363.882C196.066 363.949 195.566 364.002 195.046 364.042C194.539 364.082 194.039 364.102 193.546 364.102ZM203.527 364.002C202.913 364.002 202.4 363.896 201.987 363.682C201.573 363.456 201.26 363.096 201.047 362.602C200.833 362.096 200.727 361.416 200.727 360.562V348.722H202.307V360.362C202.307 361.002 202.367 361.489 202.487 361.822C202.607 362.142 202.78 362.369 203.007 362.502C203.233 362.622 203.5 362.702 203.807 362.742L204.887 362.862V364.002H203.527ZM210.186 364.102C209.159 364.102 208.366 363.836 207.806 363.302C207.259 362.769 206.986 361.942 206.986 360.822V353.302H208.566V360.422C208.566 361.316 208.766 361.922 209.166 362.242C209.579 362.549 210.152 362.702 210.886 362.702C211.512 362.702 212.086 362.616 212.606 362.442C213.126 362.256 213.659 362.002 214.206 361.682V353.302H215.786V363.982H214.546L214.206 362.802C213.659 363.149 213.039 363.456 212.346 363.722C211.666 363.976 210.946 364.102 210.186 364.102ZM224.303 364.102C223.797 364.102 223.323 364.042 222.883 363.922C222.457 363.789 222.063 363.636 221.703 363.462C221.343 363.276 221.023 363.089 220.743 362.902L220.443 363.982H219.163V348.722H220.743V354.282C221.25 353.989 221.823 353.729 222.463 353.502C223.103 353.276 223.697 353.162 224.243 353.162C225.097 353.162 225.803 353.342 226.363 353.702C226.923 354.062 227.343 354.649 227.623 355.462C227.917 356.276 228.063 357.362 228.063 358.722C228.063 359.829 227.937 360.789 227.683 361.602C227.43 362.402 227.023 363.022 226.463 363.462C225.917 363.889 225.197 364.102 224.303 364.102ZM223.803 362.782C224.39 362.782 224.877 362.636 225.263 362.342C225.663 362.036 225.963 361.576 226.163 360.962C226.377 360.349 226.483 359.582 226.483 358.662C226.483 357.489 226.363 356.609 226.123 356.022C225.897 355.422 225.583 355.016 225.183 354.802C224.783 354.589 224.323 354.482 223.803 354.482C223.203 354.482 222.663 354.569 222.183 354.742C221.717 354.902 221.237 355.116 220.743 355.382V361.922C221.157 362.122 221.61 362.316 222.103 362.502C222.61 362.689 223.177 362.782 223.803 362.782ZM238.996 364.102C238.21 364.102 237.563 363.869 237.056 363.402C236.55 362.936 236.296 362.276 236.296 361.422V360.662C236.296 359.822 236.57 359.142 237.116 358.622C237.676 358.102 238.516 357.842 239.636 357.842H243.256V356.522C243.256 356.082 243.176 355.709 243.016 355.402C242.87 355.082 242.596 354.836 242.196 354.662C241.81 354.489 241.243 354.402 240.496 354.402H237.176V353.462C237.643 353.382 238.183 353.309 238.796 353.242C239.423 353.176 240.156 353.142 240.996 353.142C241.863 353.129 242.583 353.236 243.156 353.462C243.73 353.689 244.15 354.049 244.416 354.542C244.696 355.022 244.836 355.656 244.836 356.442V363.982H243.616L243.316 362.762C243.263 362.816 243.096 362.909 242.816 363.042C242.55 363.176 242.203 363.329 241.776 363.502C241.363 363.662 240.91 363.802 240.416 363.922C239.936 364.042 239.463 364.102 238.996 364.102ZM239.656 362.922C239.896 362.936 240.17 362.909 240.476 362.842C240.783 362.776 241.096 362.702 241.416 362.622C241.736 362.529 242.03 362.436 242.296 362.342C242.576 362.249 242.803 362.169 242.976 362.102C243.15 362.036 243.243 362.002 243.256 362.002V358.642L239.996 358.782C239.236 358.809 238.69 358.996 238.356 359.342C238.036 359.689 237.876 360.136 237.876 360.682V361.162C237.876 361.589 237.963 361.936 238.136 362.202C238.323 362.456 238.55 362.636 238.816 362.742C239.096 362.849 239.376 362.909 239.656 362.922ZM251.755 363.982C251.062 363.982 250.488 363.869 250.035 363.642C249.582 363.416 249.248 363.049 249.035 362.542C248.822 362.036 248.722 361.362 248.735 360.522L248.795 354.602H247.095V353.582L248.815 353.302L249.075 350.322H250.295V353.302H253.375V354.602H250.295V360.522C250.295 360.989 250.342 361.362 250.435 361.642C250.542 361.922 250.675 362.136 250.835 362.282C251.008 362.429 251.188 362.536 251.375 362.602C251.562 362.656 251.742 362.689 251.915 362.702L253.215 362.822V363.982H251.755ZM261.769 363.982V349.262H263.369V363.982H261.769ZM266.857 363.982V349.262H268.457V363.982H266.857ZM275.264 363.982V350.702H270.724V349.262H281.404V350.702H276.864V363.982H275.264ZM289.063 363.982L290.743 349.262H292.363L296.283 361.982L300.123 349.262H301.763L303.483 363.982H301.943L300.463 351.082L300.723 351.122L297.003 363.982H295.543L291.723 351.142L292.023 351.102L290.603 363.982H289.063ZM308.427 364.102C307.64 364.102 306.994 363.869 306.487 363.402C305.98 362.936 305.727 362.276 305.727 361.422V360.662C305.727 359.822 306 359.142 306.547 358.622C307.107 358.102 307.947 357.842 309.067 357.842H312.687V356.522C312.687 356.082 312.607 355.709 312.447 355.402C312.3 355.082 312.027 354.836 311.627 354.662C311.24 354.489 310.674 354.402 309.927 354.402H306.607V353.462C307.074 353.382 307.614 353.309 308.227 353.242C308.854 353.176 309.587 353.142 310.427 353.142C311.294 353.129 312.014 353.236 312.587 353.462C313.16 353.689 313.58 354.049 313.847 354.542C314.127 355.022 314.267 355.656 314.267 356.442V363.982H313.047L312.747 362.762C312.694 362.816 312.527 362.909 312.247 363.042C311.98 363.176 311.634 363.329 311.207 363.502C310.794 363.662 310.34 363.802 309.847 363.922C309.367 364.042 308.894 364.102 308.427 364.102ZM309.087 362.922C309.327 362.936 309.6 362.909 309.907 362.842C310.214 362.776 310.527 362.702 310.847 362.622C311.167 362.529 311.46 362.436 311.727 362.342C312.007 362.249 312.234 362.169 312.407 362.102C312.58 362.036 312.674 362.002 312.687 362.002V358.642L309.427 358.782C308.667 358.809 308.12 358.996 307.787 359.342C307.467 359.689 307.307 360.136 307.307 360.682V361.162C307.307 361.589 307.394 361.936 307.567 362.202C307.754 362.456 307.98 362.636 308.247 362.742C308.527 362.849 308.807 362.909 309.087 362.922ZM317.645 363.982V353.302H318.885L319.225 354.482C319.732 354.122 320.325 353.809 321.005 353.542C321.685 353.262 322.392 353.122 323.125 353.122C323.912 353.122 324.545 353.289 325.025 353.622C325.505 353.956 325.859 354.396 326.085 354.942C326.312 355.489 326.425 356.082 326.425 356.722V363.982H324.845V356.902C324.845 356.449 324.752 356.049 324.565 355.702C324.392 355.342 324.139 355.062 323.805 354.862C323.485 354.662 323.085 354.562 322.605 354.562C322.165 354.562 321.752 354.609 321.365 354.702C320.992 354.782 320.632 354.902 320.285 355.062C319.952 355.209 319.599 355.389 319.225 355.602V363.982H317.645ZM333.263 364.102C332.383 364.102 331.657 363.916 331.083 363.542C330.523 363.156 330.103 362.569 329.823 361.782C329.557 360.982 329.423 359.962 329.423 358.722C329.423 357.402 329.557 356.336 329.823 355.522C330.09 354.696 330.517 354.096 331.103 353.722C331.69 353.349 332.477 353.162 333.463 353.162C334.063 353.162 334.65 353.229 335.223 353.362C335.797 353.496 336.303 353.642 336.743 353.802V348.722H338.323V363.982H337.043L336.743 362.902C336.543 363.076 336.243 363.256 335.843 363.442C335.457 363.629 335.03 363.789 334.563 363.922C334.11 364.042 333.677 364.102 333.263 364.102ZM333.723 362.802C334.337 362.802 334.89 362.709 335.383 362.522C335.89 362.322 336.343 362.116 336.743 361.902V354.922C336.263 354.776 335.803 354.656 335.363 354.562C334.923 354.456 334.43 354.402 333.883 354.402C333.203 354.402 332.65 354.529 332.223 354.782C331.797 355.036 331.483 355.476 331.283 356.102C331.097 356.716 331.003 357.569 331.003 358.662C331.003 359.649 331.09 360.449 331.263 361.062C331.45 361.676 331.743 362.122 332.143 362.402C332.543 362.669 333.07 362.802 333.723 362.802ZM341.947 351.402C341.734 351.402 341.627 351.296 341.627 351.082V349.522C341.627 349.309 341.734 349.202 341.947 349.202H343.067C343.174 349.202 343.247 349.236 343.287 349.302C343.34 349.356 343.367 349.429 343.367 349.522V351.082C343.367 351.296 343.267 351.402 343.067 351.402H341.947ZM341.707 363.982V353.302H343.287V363.982H341.707Z" fill="#585858"/>
</svg>
