<svg width="446" height="79" viewBox="0 0 446 79" fill="none" xmlns="http://www.w3.org/2000/svg">
<rect x="1.5" y="1.52051" width="75" height="75" rx="37.5" fill="#1E1E1E"/>
<g clip-path="url(#clip0_1051_7512)">
<path d="M42.3889 42.0205C42.3889 40.2671 43.0854 38.5856 44.3253 37.3457C45.5651 36.1059 47.2467 35.4094 49 35.4094C50.7534 35.4094 52.435 36.1059 53.6748 37.3457C54.9146 38.5856 55.6111 40.2671 55.6111 42.0205C55.6111 43.7739 54.9146 45.4554 53.6748 46.6953C52.435 47.9351 50.7534 48.6316 49 48.6316C47.2467 48.6316 45.5651 47.9351 44.3253 46.6953C43.0854 45.4554 42.3889 43.7739 42.3889 42.0205Z" fill="#1ABCFE"/>
<path d="M29.1667 55.2427C29.1667 53.4894 29.8633 51.8078 31.1031 50.568C32.3429 49.3281 34.0245 48.6316 35.7779 48.6316H42.389V55.2427C42.389 56.9961 41.6924 58.6777 40.4526 59.9175C39.2128 61.1573 37.5312 61.8538 35.7779 61.8538C34.0245 61.8538 32.3429 61.1573 31.1031 59.9175C29.8633 58.6777 29.1667 56.9961 29.1667 55.2427V55.2427Z" fill="#0ACF83"/>
<path d="M42.3889 22.1872V35.4094H49C50.7534 35.4094 52.435 34.7129 53.6748 33.4731C54.9146 32.2332 55.6111 30.5517 55.6111 28.7983C55.6111 27.0449 54.9146 25.3634 53.6748 24.1235C52.435 22.8837 50.7534 22.1872 49 22.1872H42.3889Z" fill="#FF7262"/>
<path d="M29.1667 28.7983C29.1667 30.5517 29.8633 32.2332 31.1031 33.4731C32.3429 34.7129 34.0245 35.4094 35.7779 35.4094H42.389V22.1872H35.7779C34.0245 22.1872 32.3429 22.8837 31.1031 24.1235C29.8633 25.3634 29.1667 27.0449 29.1667 28.7983V28.7983Z" fill="#F24E1E"/>
<path d="M29.1667 42.0205C29.1667 43.7739 29.8633 45.4554 31.1031 46.6953C32.3429 47.9351 34.0245 48.6316 35.7779 48.6316H42.389V35.4094H35.7779C34.0245 35.4094 32.3429 36.1059 31.1031 37.3457C29.8633 38.5856 29.1667 40.2671 29.1667 42.0205V42.0205Z" fill="#A259FF"/>
</g>
<rect x="1.5" y="1.52051" width="75" height="75" rx="37.5" stroke="#515151" stroke-width="3"/>
<g clip-path="url(#clip1_1051_7512)">
<path d="M86.13 0.0205078H137.663C145.476 0.0205078 151.793 6.35384 151.793 14.1872V63.8538C151.793 71.6872 145.476 78.0205 137.663 78.0205H86.13C78.317 78.0205 72 71.6872 72 63.8538V14.1872C72 6.35384 78.317 0.0205078 86.13 0.0205078Z" fill="#330000"/>
<path d="M111.487 47.4489H101.55L99.5194 53.7427C99.466 53.9837 99.2523 54.1444 99.0119 54.1176H93.9899C93.696 54.1176 93.6159 53.9569 93.696 53.6356L102.298 28.8085C102.378 28.5407 102.458 28.2461 102.565 27.9247C102.672 27.3623 102.725 26.7731 102.725 26.1839C102.698 26.05 102.805 25.9161 102.939 25.8893H109.857C110.071 25.8893 110.178 25.9696 110.205 26.1035L119.955 53.6891C120.035 53.9837 119.955 54.1176 119.688 54.1176H114.105C113.918 54.1444 113.731 54.0105 113.677 53.823L111.487 47.4489ZM103.099 42.0121H109.884C109.724 41.4497 109.51 40.7801 109.27 40.0838C109.029 39.3607 108.789 38.584 108.548 37.7805C108.281 36.9503 108.041 36.1468 107.774 35.3166C107.507 34.4863 107.266 33.7097 107.052 32.933C106.839 32.1831 106.652 31.4867 106.465 30.844H106.411C106.171 31.9956 105.877 33.1472 105.503 34.2989C105.102 35.5844 104.702 36.9235 104.274 38.2626C103.9 39.6285 103.5 40.8873 103.099 42.0121ZM125.912 30.5761C125.03 30.6029 124.175 30.2548 123.534 29.6388C122.92 28.9692 122.599 28.0854 122.626 27.1748C122.599 26.2642 122.947 25.4072 123.588 24.7912C124.229 24.1752 125.084 23.8538 125.965 23.8538C127.007 23.8538 127.808 24.1752 128.396 24.7912C128.984 25.434 129.304 26.291 129.278 27.1748C129.304 28.0854 128.984 28.9692 128.343 29.6388C127.728 30.2815 126.82 30.6297 125.912 30.5761ZM122.92 53.823V33.2008C122.92 32.933 123.027 32.8258 123.267 32.8258H128.556C128.797 32.8258 128.904 32.9598 128.904 33.2008V53.823C128.904 54.1176 128.797 54.2515 128.556 54.2515H123.321C123.053 54.2515 122.92 54.0909 122.92 53.823Z" fill="#FF9A00"/>
</g>
<rect x="73.5" y="1.52051" width="76.7931" height="75" rx="37.5" stroke="#9F6000" stroke-width="3"/>
<g clip-path="url(#clip2_1051_7512)">
<path d="M159.96 0.0205078H211.626C219.46 0.0205078 225.793 6.35384 225.793 14.1872V63.8538C225.793 71.6872 219.46 78.0205 211.626 78.0205H159.96C152.126 78.0205 145.793 71.6872 145.793 63.8538V14.1872C145.793 6.35384 152.126 0.0205078 159.96 0.0205078Z" fill="#001E36"/>
<path d="M166.007 53.0127V24.0498C166.007 23.8528 166.091 23.7402 166.288 23.7402C166.767 23.7402 167.217 23.7402 167.865 23.7121C168.54 23.6839 169.244 23.6839 170.004 23.6558C170.764 23.6276 171.58 23.6276 172.452 23.5995C173.325 23.5713 174.169 23.5713 175.014 23.5713C177.322 23.5713 179.236 23.8528 180.812 24.4439C182.219 24.9224 183.514 25.7105 184.584 26.7519C185.484 27.6526 186.188 28.7503 186.638 29.9606C187.06 31.1428 187.286 32.3531 187.286 33.6197C187.286 36.0403 186.723 38.0387 185.597 39.6149C184.471 41.1911 182.895 42.3733 181.065 43.0488C179.151 43.7524 177.04 44.0058 174.732 44.0058C174.057 44.0058 173.606 44.0058 173.325 43.9776C173.043 43.9495 172.649 43.9495 172.115 43.9495V52.9845C172.143 53.1816 172.002 53.3504 171.805 53.3786C171.777 53.3786 171.749 53.3786 171.692 53.3786H166.345C166.119 53.3786 166.007 53.266 166.007 53.0127ZM172.143 29.1725V38.6298C172.537 38.6579 172.903 38.6861 173.241 38.6861H174.732C175.83 38.6861 176.928 38.5172 177.969 38.1794C178.87 37.9261 179.658 37.3913 180.277 36.6877C180.868 35.984 181.15 35.027 181.15 33.7886C181.178 32.916 180.953 32.0435 180.502 31.2835C180.024 30.5517 179.348 29.9888 178.532 29.6791C177.491 29.2569 176.365 29.0881 175.211 29.1162C174.479 29.1162 173.832 29.1162 173.297 29.1444C172.734 29.1162 172.34 29.1444 172.143 29.1725Z" fill="#31A8FF"/>
<path d="M204.849 36.9128C204.005 36.4625 203.104 36.1529 202.147 35.9558C201.106 35.7307 200.064 35.5899 198.995 35.5899C198.432 35.5618 197.841 35.6462 197.306 35.787C196.94 35.8714 196.63 36.0684 196.433 36.3499C196.293 36.5751 196.208 36.8565 196.208 37.1099C196.208 37.3632 196.321 37.6165 196.49 37.8417C196.743 38.1513 197.081 38.4046 197.447 38.6016C198.094 38.9394 198.769 39.249 199.445 39.5305C200.965 40.0371 202.428 40.7408 203.78 41.5852C204.708 42.1762 205.468 42.9644 206.003 43.9213C206.453 44.822 206.679 45.8072 206.65 46.8204C206.679 48.1433 206.285 49.4662 205.553 50.5639C204.765 51.6898 203.667 52.5623 202.4 53.069C201.021 53.6601 199.332 53.9697 197.306 53.9697C196.011 53.9697 194.744 53.8571 193.478 53.6038C192.493 53.4349 191.508 53.1253 190.607 52.7031C190.41 52.5905 190.269 52.3935 190.297 52.1683V47.2708C190.297 47.1863 190.325 47.0738 190.41 47.0175C190.494 46.9612 190.579 46.9893 190.663 47.0456C191.761 47.693 192.915 48.1433 194.153 48.4248C195.223 48.7063 196.349 48.847 197.475 48.847C198.544 48.847 199.304 48.7063 199.811 48.4529C200.261 48.2559 200.571 47.7774 200.571 47.2708C200.571 46.8767 200.346 46.5108 199.895 46.1449C199.445 45.779 198.516 45.3568 197.137 44.822C195.701 44.3154 194.379 43.6399 193.14 42.7955C192.268 42.1762 191.536 41.36 191.001 40.403C190.551 39.5023 190.325 38.5172 190.354 37.5321C190.354 36.3217 190.691 35.1677 191.311 34.1263C192.014 33.0005 193.056 32.0998 194.266 31.5368C195.589 30.8613 197.249 30.5517 199.248 30.5517C200.402 30.5517 201.584 30.6361 202.738 30.805C203.582 30.9176 204.399 31.1428 205.159 31.4524C205.271 31.4805 205.384 31.5931 205.44 31.7057C205.468 31.8183 205.496 31.9309 205.496 32.0435V36.6314C205.496 36.7439 205.44 36.8565 205.356 36.9128C205.102 36.9691 204.962 36.9691 204.849 36.9128Z" fill="#31A8FF"/>
</g>
<rect x="147.293" y="1.52051" width="77" height="75" rx="37.5" stroke="#144568" stroke-width="3"/>
<g clip-path="url(#clip3_1051_7512)">
<path d="M233.96 0.0205078H285.626C293.46 0.0205078 299.793 6.35384 299.793 14.1872V63.8538C299.793 71.6872 293.46 78.0205 285.626 78.0205H233.96C226.126 78.0205 219.793 71.6872 219.793 63.8538V14.1872C219.793 6.35384 226.126 0.0205078 233.96 0.0205078Z" fill="#00005B"/>
<path d="M253.366 46.5216H242.799L240.64 53.2253C240.583 53.481 240.356 53.6514 240.1 53.623H234.76C234.448 53.623 234.362 53.4525 234.448 53.1117L243.594 26.8932C243.679 26.6092 243.765 26.3535 243.878 26.0127C243.992 25.4161 244.049 24.7912 244.049 24.1663C244.02 24.0243 244.134 23.8822 244.276 23.8538H244.361H251.633C251.832 23.8538 251.974 23.9391 252.002 24.0811L262.37 53.0549C262.456 53.3673 262.37 53.5094 262.086 53.5094H256.15C255.951 53.5378 255.752 53.3957 255.695 53.1969L253.366 46.3795V46.5216ZM244.446 40.8688H251.661C251.491 40.2723 251.264 39.5622 251.008 38.8236C250.752 38.0567 250.497 37.2329 250.241 36.3807C249.957 35.5002 249.701 34.648 249.417 33.7674C249.133 32.8868 248.878 32.0631 248.65 31.2393C248.423 30.444 248.224 29.7054 248.026 29.0237H247.969C247.713 30.2451 247.401 31.4666 247.003 32.688C246.577 34.0515 246.151 35.4718 245.696 36.892C245.327 38.3407 244.873 39.6758 244.446 40.8688Z" fill="#9999FF"/>
<path d="M279.101 43.965H270.097C270.21 44.8456 270.494 45.7262 270.977 46.4932C271.489 47.2601 272.199 47.8566 273.051 48.1975C274.187 48.6804 275.437 48.936 276.687 48.9076C277.681 48.8792 278.675 48.794 279.641 48.5952C280.522 48.4816 281.374 48.2543 282.169 47.9418C282.311 47.8282 282.396 47.885 282.396 48.1691V52.5152C282.396 52.6288 282.368 52.7424 282.34 52.856C282.283 52.9412 282.226 52.9981 282.141 53.0549C281.232 53.4525 280.294 53.7366 279.3 53.907C277.965 54.1627 276.63 54.2763 275.267 54.2479C273.108 54.2479 271.29 53.907 269.813 53.2537C268.421 52.6572 267.199 51.7198 266.234 50.5552C265.325 49.4473 264.671 48.1975 264.274 46.834C263.876 45.499 263.677 44.1071 263.677 42.6868C263.677 41.1529 263.904 39.6474 264.387 38.1703C264.842 36.75 265.552 35.4433 266.518 34.2787C267.455 33.1425 268.62 32.2335 269.955 31.5802C271.29 30.9268 272.88 30.6996 274.698 30.6996C276.204 30.6712 277.709 30.9552 279.101 31.5802C280.266 32.0915 281.289 32.8584 282.084 33.8526C282.822 34.8184 283.419 35.8978 283.788 37.0909C284.157 38.2271 284.328 39.3917 284.328 40.5564C284.328 41.2381 284.3 41.8346 284.271 42.3743C284.214 42.914 284.186 43.3117 284.157 43.5674C284.129 43.7662 283.959 43.9366 283.76 43.9366C283.589 43.9366 283.277 43.965 282.822 43.9935C282.368 44.0503 281.828 44.0787 281.175 44.0787C280.522 44.0787 279.84 43.965 279.101 43.965ZM270.097 39.8178H276.09C276.829 39.8178 277.369 39.8178 277.709 39.7894C277.937 39.761 278.164 39.7042 278.363 39.5622V39.2781C278.363 38.9088 278.306 38.568 278.192 38.2271C277.681 36.6364 276.176 35.557 274.5 35.6138C272.937 35.5286 271.46 36.3523 270.722 37.7726C270.381 38.4259 270.182 39.1077 270.097 39.8178Z" fill="#9999FF"/>
</g>
<rect x="221.293" y="1.52051" width="77" height="75" rx="37.5" stroke="#373788" stroke-width="3"/>
<rect x="295.293" y="1.52051" width="75" height="75" rx="37.5" fill="#1E1E1E"/>
<path d="M311.732 16.2537L339.152 14.2171C342.521 13.9265 343.386 14.1224 345.504 15.6707L354.257 21.8713C355.701 22.9377 356.181 23.2282 356.181 24.3893V58.3964C356.181 60.5278 355.412 61.7885 352.718 61.9809L320.875 63.9204C318.853 64.0165 317.89 63.726 316.831 62.3691L310.385 53.9404C309.229 52.3891 308.75 51.2281 308.75 49.8706V19.6423C308.75 17.8997 309.519 16.4466 311.732 16.2537Z" fill="white"/>
<path fill-rule="evenodd" clip-rule="evenodd" d="M339.152 14.2176L311.732 16.2542C309.519 16.4466 308.75 17.9002 308.75 19.6423V49.8709C308.75 51.2278 309.229 52.3889 310.385 53.9407L316.831 62.3689C317.89 63.7259 318.853 64.0169 320.875 63.9202L352.718 61.9817C355.41 61.7889 356.181 60.5281 356.181 58.3973V24.3899C356.181 23.2886 355.749 22.9712 354.475 22.0313L345.504 15.6707C343.386 14.1224 342.52 13.9265 339.152 14.2171V14.2176ZM321.595 23.8333C318.994 24.0092 318.405 24.0491 316.928 22.8416L313.174 19.8387C312.792 19.45 312.984 18.9651 313.945 18.8684L340.305 16.9314C342.519 16.7371 343.672 17.513 344.537 18.1907L349.058 21.4847C349.252 21.5828 349.732 22.1624 349.154 22.1624L321.932 23.8104L321.595 23.8333ZM318.563 58.1067V29.2371C318.563 27.9764 318.948 27.3948 320.101 27.2972L351.368 25.4563C352.428 25.3602 352.907 26.0379 352.907 27.2967V55.9739C352.907 57.2347 352.714 58.3011 350.983 58.3973L321.063 60.1414C319.332 60.2376 318.564 59.658 318.564 58.1067H318.563ZM348.098 30.7849C348.29 31.657 348.098 32.5291 347.231 32.6288L345.789 32.9163V54.2312C344.537 54.909 343.384 55.2962 342.421 55.2962C340.881 55.2962 340.497 54.8113 339.343 53.3592L329.913 38.4393V52.8743L332.896 53.5535C332.896 53.5535 332.896 55.2977 330.489 55.2977L323.854 55.6849C323.661 55.2962 323.854 54.3279 324.526 54.1351L326.259 53.6517V34.5658L323.854 34.3699C323.661 33.4978 324.142 32.2386 325.49 32.1409L332.609 31.659L342.421 46.7718V33.4017L339.92 33.1126C339.727 32.0447 340.497 31.2688 341.458 31.1741L348.098 30.7849Z" fill="black"/>
<rect x="295.293" y="1.52051" width="75" height="75" rx="37.5" stroke="#515151" stroke-width="3"/>
<g clip-path="url(#clip4_1051_7512)">
<path d="M379.96 0.0205078H431.626C439.46 0.0205078 445.793 6.35384 445.793 14.1872V63.8538C445.793 71.6872 439.46 78.0205 431.626 78.0205H379.96C372.126 78.0205 365.793 71.6872 365.793 63.8538V14.1872C365.793 6.35384 372.126 0.0205078 379.96 0.0205078Z" fill="#00005B"/>
<path d="M388.031 52.2671V22.7605C388.031 22.5599 388.117 22.4453 388.317 22.4453C388.804 22.4453 389.263 22.4453 389.922 22.4167C390.609 22.388 391.325 22.388 392.099 22.3594C392.872 22.3307 393.703 22.3307 394.591 22.3021C395.479 22.2735 396.339 22.2735 397.198 22.2735C399.547 22.2735 401.495 22.5599 403.099 23.1615C404.532 23.6485 405.85 24.4506 406.938 25.5106C407.855 26.4273 408.571 27.5445 409.029 28.7764C409.459 29.9796 409.688 31.2114 409.688 32.5005C409.688 34.9642 409.115 36.9981 407.969 38.6024C406.824 40.2066 405.219 41.4098 403.357 42.0973C401.409 42.8135 399.261 43.0713 396.912 43.0713C396.224 43.0713 395.766 43.0713 395.479 43.0427C395.193 43.014 394.792 43.014 394.247 43.014V52.2098C394.276 52.4103 394.133 52.5822 393.932 52.6109H393.818H388.375C388.146 52.6109 388.031 52.4963 388.031 52.2384V52.2671ZM394.276 28.0029V37.6284C394.677 37.657 395.05 37.6857 395.393 37.6857H396.912C398.029 37.6857 399.146 37.5138 400.206 37.17C401.123 36.9122 401.925 36.3679 402.555 35.6517C403.157 34.9355 403.443 33.9615 403.443 32.701C403.472 31.813 403.243 30.9249 402.784 30.1514C402.297 29.4066 401.61 28.8337 400.779 28.5185C399.719 28.0888 398.573 27.917 397.399 27.9456C396.654 27.9456 395.995 27.9456 395.451 27.9742C394.878 27.9456 394.477 27.9743 394.276 28.0029Z" fill="#9999FF"/>
<path d="M413.813 29.6931H418.827C419.113 29.6931 419.342 29.8936 419.428 30.1514C419.514 30.3806 419.572 30.6098 419.6 30.8676C419.657 31.1541 419.715 31.4692 419.743 31.7557C419.772 32.0708 419.801 32.4146 419.801 32.787C420.66 31.7843 421.691 30.9536 422.866 30.3233C424.184 29.5785 425.702 29.2061 427.22 29.2061C427.421 29.1774 427.593 29.3207 427.621 29.5212V29.6358V35.222C427.621 35.4512 427.478 35.5371 427.163 35.5371C426.132 35.5085 425.072 35.5944 424.069 35.8236C423.238 35.9955 422.436 36.2533 421.663 36.5971C421.118 36.8549 420.603 37.1986 420.202 37.657V52.2671C420.202 52.5536 420.087 52.6681 419.829 52.6681H414.186C413.957 52.6968 413.756 52.5536 413.728 52.3244V52.2098V36.3392C413.728 35.6517 413.728 34.9355 413.699 34.1907C413.67 33.4459 413.67 32.701 413.642 31.9562C413.642 31.2973 413.584 30.6671 413.527 30.0082C413.498 29.865 413.584 29.7217 413.728 29.6931C413.728 29.6644 413.785 29.6644 413.813 29.6931Z" fill="#9999FF"/>
</g>
<rect x="367.293" y="1.52051" width="77" height="75" rx="37.5" stroke="#373788" stroke-width="3"/>
<defs>
<clipPath id="clip0_1051_7512">
<rect width="26.4444" height="39.6667" fill="white" transform="translate(29.1667 22.1872)"/>
</clipPath>
<clipPath id="clip1_1051_7512">
<rect x="72" y="0.0205078" width="79.7931" height="78" rx="39" fill="white"/>
</clipPath>
<clipPath id="clip2_1051_7512">
<rect x="145.793" y="0.0205078" width="80" height="78" rx="39" fill="white"/>
</clipPath>
<clipPath id="clip3_1051_7512">
<rect x="219.793" y="0.0205078" width="80" height="78" rx="39" fill="white"/>
</clipPath>
<clipPath id="clip4_1051_7512">
<rect x="365.793" y="0.0205078" width="80" height="78" rx="39" fill="white"/>
</clipPath>
</defs>
</svg>
